<svg id="Layer_1" data-name="Layer 1" xmlns="http://www.w3.org/2000/svg" width="146" height="141" viewBox="0 0 146 141"><title>locator</title><polygon points="126.23 100.09 126.44 100.26 126.44 100.38 126.75 100.71 127.16 100.95 126.95 101.01 126.64 100.97 126.49 101.04 126.3 101.33 126.26 101.5 126.31 101.73 126.25 101.94 126.28 102.09 126.06 102.07 126.12 102.46 126.17 102.55 126.1 102.85 126.14 103.06 125.96 103.52 125.83 103.43 125.65 103.39 125.49 103.24 125.4 102.65 125.22 102.74 125.06 102.55 125.1 102.42 125 102.15 124.97 101.68 125.05 101.31 125.13 101.19 125.08 101 125.14 100.87 126.21 100.08 126.23 100.09" style="fill:#fff;stroke:#767676;stroke-linecap:square;stroke-linejoin:bevel;stroke-width:0.5px"/><polygon points="131.28 100.33 131.28 100.33 131.28 100.33 131.28 100.33 131.28 100.32 131.28 100.32 131.28 100.32 131.28 100.32 131.28 100.32 131.28 100.32 131.28 100.32 131.28 100.31 131.28 100.31 131.27 100.31 131.27 100.31 131.27 100.31 131.27 100.31 131.27 100.31 131.27 100.31 131.27 100.3 131.27 100.3 131.27 100.3 131.27 100.3 131.27 100.3 131.27 100.3 131.27 100.29 131.28 100.29 131.28 100.29 131.28 100.29 131.29 100.29 131.29 100.29 131.29 100.29 131.29 100.29 131.29 100.29 131.3 100.29 131.3 100.29 131.31 100.28 131.31 100.28 131.31 100.28 131.31 100.27 131.31 100.26 131.3 100.26 131.31 100.26 131.31 100.25 131.31 100.25 131.31 100.25 131.31 100.25 131.31 100.24 131.31 100.24 131.31 100.23 131.32 100.23 131.32 100.23 131.32 100.22 131.32 100.22 131.32 100.21 131.32 100.21 131.31 100.21 131.31 100.2 131.3 100.21 131.3 100.2 131.3 100.2 131.29 100.2 131.29 100.2 131.29 100.2 131.29 100.2 131.29 100.19 131.29 100.19 131.28 100.19 131.28 100.19 131.28 100.19 131.28 100.19 131.28 100.19 131.28 100.19 131.28 100.18 131.28 100.18 131.28 100.18 131.28 100.18 131.28 100.18 131.28 100.17 131.28 100.17 131.28 100.17 131.28 100.17 131.28 100.17 131.28 100.17 131.28 100.17 131.28 100.17 131.28 100.17 131.28 100.17 131.28 100.17 131.28 100.17 131.29 100.18 131.29 100.18 131.29 100.18 131.29 100.18 131.29 100.18 131.29 100.18 131.29 100.18 131.3 100.18 131.3 100.18 131.3 100.18 131.3 100.18 131.31 100.18 131.31 100.18 131.32 100.18 131.32 100.18 131.32 100.18 131.32 100.17 131.32 100.17 131.32 100.17 131.32 100.17 131.33 100.17 131.33 100.17 131.33 100.17 131.33 100.17 131.33 100.17 131.33 100.17 131.33 100.17 131.33 100.17 131.34 100.18 131.34 100.18 131.34 100.18 131.34 100.18 131.34 100.18 131.34 100.18 131.34 100.19 131.35 100.19 131.35 100.18 131.35 100.18 131.35 100.18 131.35 100.18 131.35 100.17 131.35 100.17 131.35 100.17 131.35 100.17 131.35 100.17 131.35 100.17 131.35 100.18 131.35 100.17 131.35 100.18 131.35 100.18 131.35 100.18 131.35 100.18 131.35 100.19 131.35 100.19 131.35 100.19 131.35 100.19 131.35 100.19 131.35 100.19 131.35 100.19 131.35 100.19 131.35 100.19 131.36 100.19 131.36 100.19 131.36 100.19 131.36 100.19 131.36 100.19 131.37 100.19 131.37 100.19 131.37 100.19 131.37 100.19 131.37 100.19 131.37 100.18 131.37 100.18 131.37 100.18 131.37 100.18 131.37 100.18 131.37 100.18 131.36 100.18 131.36 100.18 131.36 100.18 131.36 100.17 131.36 100.17 131.36 100.17 131.35 100.17 131.35 100.17 131.35 100.17 131.35 100.17 131.35 100.17 131.35 100.17 131.35 100.17 131.35 100.17 131.35 100.17 131.35 100.17 131.35 100.17 131.36 100.17 131.36 100.17 131.36 100.17 131.36 100.17 131.36 100.18 131.37 100.18 131.37 100.18 131.37 100.18 131.37 100.18 131.37 100.18 131.37 100.19 131.37 100.19 131.37 100.19 131.38 100.19 131.38 100.19 131.38 100.19 131.38 100.19 131.38 100.19 131.38 100.19 131.38 100.19 131.38 100.19 131.38 100.19 131.38 100.19 131.38 100.19 131.39 100.19 131.39 100.19 131.39 100.19 131.39 100.19 131.39 100.2 131.39 100.2 131.39 100.2 131.4 100.2 131.4 100.2 131.4 100.2 131.4 100.2 131.4 100.19 131.4 100.19 131.41 100.19 131.41 100.19 131.41 100.19 131.41 100.19 131.41 100.19 131.41 100.19 131.42 100.19 131.42 100.19 131.42 100.19 131.42 100.19 131.42 100.19 131.42 100.19 131.42 100.19 131.43 100.18 131.43 100.18 131.43 100.18 131.43 100.18 131.43 100.18 131.43 100.18 131.43 100.18 131.43 100.18 131.43 100.18 131.43 100.17 131.43 100.17 131.44 100.17 131.44 100.17 131.44 100.17 131.44 100.17 131.44 100.17 131.44 100.17 131.44 100.17 131.44 100.17 131.44 100.17 131.44 100.16 131.44 100.16 131.44 100.16 131.44 100.16 131.45 100.16 131.45 100.16 131.45 100.16 131.45 100.16 131.45 100.15 131.45 100.15 131.45 100.15 131.45 100.15 131.45 100.15 131.45 100.15 131.45 100.15 131.45 100.15 131.45 100.15 131.46 100.15 131.46 100.14 131.46 100.14 131.46 100.14 131.46 100.14 131.46 100.14 131.46 100.14 131.46 100.14 131.46 100.14 131.46 100.14 131.46 100.14 131.46 100.14 131.47 100.13 131.47 100.13 131.47 100.13 131.47 100.13 131.47 100.13 131.47 100.13 131.47 100.13 131.47 100.13 131.47 100.13 131.47 100.12 131.47 100.12 131.47 100.12 131.48 100.12 131.48 100.12 131.48 100.12 131.48 100.12 131.48 100.12 131.48 100.12 131.48 100.12 131.49 100.11 131.49 100.11 131.49 100.11 131.49 100.11 131.49 100.11 131.49 100.11 131.49 100.11 131.49 100.11 131.49 100.11 131.5 100.11 131.5 100.11 131.5 100.11 131.5 100.11 131.5 100.1 131.5 100.1 131.5 100.1 131.5 100.1 131.5 100.1 131.5 100.1 131.5 100.1 131.5 100.1 131.5 100.09 131.51 100.09 131.51 100.09 131.51 100.09 131.51 100.09 131.51 100.09 131.51 100.09 131.51 100.08 131.51 100.08 131.51 100.08 131.51 100.08 131.51 100.08 131.51 100.07 131.51 100.07 131.51 100.07 131.51 100.07 131.51 100.07 131.51 100.07 131.51 100.06 131.51 100.06 131.51 100.06 131.51 100.06 131.51 100.06 131.56 100.07 131.57 100.07 131.62 100.08 131.65 100.08 131.68 100.07 131.68 100.08 131.79 100.13 131.84 100.26 131.42 100.25 131.28 100.33" style="fill:#fff;stroke:#767676;stroke-linecap:square;stroke-linejoin:bevel;stroke-width:0.5px"/><path d="M126.23,100.09h0l-1.07.79-.06.14,0,.18-.08.12-.08.37,0,.47.1.27,0,.13.16.19.18-.09.09.59.16.15.18,0,.13.09.18-.46,0-.21.07-.3,0-.09-.06-.39.22,0,0-.15.07-.21,0-.23,0-.17.19-.29.15-.07.31,0,.21-.06-.41-.24-.3-.33v-.12Zm15.21-28.74.08.12,0,.22,0,.3,0,.13-.08.37v.26l.06.27.08.14.11.07,0,.25-.08.3,0,.26-.06.12-.24.29-.19.29L141,75l.05.25-.13.15-.23.47V76l.09.11,0,.67-.07.14-.05.52-.09.17,0,.17-.13.36,0,.13-.06.2-.2.35v.5l-.11.15-.1.27V80l-.2.35,0,.13-.14.23-.08.37,0,.28-.09.19,0,.6,0,.1.23.09.09.16-.09.11-.08.24,0,.27-.19.24-.1.31V84l0,.06-.14.2-.07.23.09.2-.23.26-.11.21,0,.26-.14.23v.12l-.2.29,0,.2-.32.28L138,87v.18l-.13.2v.21h-.14l-.09.15.13.12-.1.15.1.06.16-.09-.07-.22,0-.11.21.1-.15.26,0,.14.08.11-.09.24,0,.19-.3.13-.4.25-.15.25-.3.21-.05.14-.2,0-.23.09v-.15l-.37.1.08.12.27.15.19-.1h.23V90l-.21.19h-.16l-.27.06-.29.12-.4.23-.08.09,0,.14-.18.17,0,.12-.13.1h-.2l-.2.18-.15,0v.29l.17-.12.22,0-.06.24-.19.2-.22,0,0,.16-.26.19,0,.15.12.1,0,.14-.14.16v.19l-.13.19h-.53l-.09.11.1.17.27.17-.13.33,0,.21-.15.31-.18.07.27.14-.1.14,0,.2-.1.13-.11-.16h-.16l-.07.19.32.1-.26.11,0,.15-.2.26-.24.16-.17.18-.24.41v.18l-.06.11,0,.28-.08.14-.21.06.07.21.12,0,0,.2,0,.32-.1.29-.22.21-.06.18v.43l.29.4v.14l-.1.09-.1-.17,0-.07-.11-.21-.1,0-.19.17.14.38h-.4l-.19.14,0,.16-.17.15v.34l-.29.41,0,.37-.25.37-.11.33-.34,0,.18.3,0,.25h-.15l-.1.22,0,.56-.12.55.09.54,0,.17-.31.36.1.21-.08.24.05.28-.3.66,0,.11-.08.26-.07,0-.06.41-.08,0,.12.61-.23.19.1.13.13-.06.22.21.11.44h-.23l-.09.15.09.12-.07.28.1.37v.21L127,109.39l-2.31-1.18-1.69-.87-.32,0,.13-.24.17-.19.1-.31-.06-.13-.22-.09v-.19l0-.26-.13-.06-.17-.37.06-.15-.07-.22,0-.44,0-.15-.15-.11,0-.32-.25,0,0-.21H122l-.3-.14-.27-.09h-.22l-.34.26-.11-.07-.08-.18-.16,0-.18,0-.14.17,0,.19-.14.13-.09-.08-.27,0-.19-.06-.11-.13-.28.48-.11-.13h-.1l-.21.1,0-.1h-.23l-.13-.11h-.11l-.16-.14-.11.06-.29-.3-.18.09-.1-.14-.1.11-.24-.09-.14.21-.26.13-.16-.14-.21.08-.58-.17-.14.1-.16-.21-.24,0-.21.15-.11-.13-.4-.21-.25-.21-.18-.24h-.15l-.52.23-.21,0-.12-.1-.27.05-.19-.09-.14,0-.34.25-.08.2,0,.13-.11.11.2.27v.1l-.41-.06-.07.16-.19.14-.13,0-.08-.14-.44-.22-.25-.19-.13-.2-.21-.13-.06-.19-.15-.23,0-.08-.28-.29-.09.07-.19-.29-.17-.06-.16-.2,0-.15-.2-.14h-.18l-.09-.23-.22,0-.13-.08-.36-.37h-.19l-.14-.09-.09.13-.27-.36.06-.44-.06,0-.31.07-.08-.13h-.19l0-.23-.15-.17,0-.41-.06-.07,0-.39.09-.16,0-.22-.12-.12-.1,0-.14-.17-.3-.2-.43,0-.14-.11-.1,0-.15-.1-.15.1,0-.2-.38-.21-.16.15-.08.25v.21l-.23.07.06.2-.37-.1-.08-.12.06-.13-.16-.13,0-.12-.09-.29-.15,0-.08-.19,0-.14-.11-.13,0-.28.12-.13,0-.13-.25,0-.27-.19v-.38l-.4-.21L102,96l0-.19-.15,0-.44,0-.2.09-.3-.15h-.18l-.25.11-.12.14,0,.19-.22,0L100,96l-.19,0-.34-.23h-.15l-.2-.2-.13,0-.18.1-.21-.14-.18,0-.14-.16V74.66h27.38l.29-.25,0-.23.14-.19h.1l.19-.14,0-.08.36-.27.22-.11.12,0,.12-.16,0-.15.2-.14.25,0,.25.12.11.13.2-.06.49-.06.23.06.26-.15h.21l.29-.11.14.07.3-.14.21.15.07.18.24.17.15,0,.17.06.16-.07.18.08.41-.17.23.1.18.14.11,0,.15.18.21,0,.12.24,0,.2L133,74l.4.2.28.25,0,.16,0,.27,0,.17.13.16.07.17h.2l.32-.36,0-.22.17-.32.32-.12.3-.22.08.19.09.09.21.08,0-.18h.19l.1.06.34-.15.05-.13v-.4l.13-.2-.13-.17h-.08l-.08-.16,0-.18-.1-.07v-.17l.21,0,.22-.22.15,0,.14-.12.19.07.17-.24.14-.11.27,0,.26-.43.17,0,.09.06,0,.16.18.13.15-.18.06.07.29.13.09.08.15,0L139,72l.15,0,.21.09h.36l.2.08.14-.21.09,0,.07-.18.15.07.15-.12.28.06.44-.37Z" style="fill:#fff;stroke:#767676;stroke-linecap:square;stroke-linejoin:bevel;stroke-width:0.5px"/><polygon points="87.94 27.06 87.94 28.75 87.94 30.42 87.93 32.44 87.94 33.11 87.94 34.74 87.94 36.14 87.95 39.56 87.94 42.66 87.94 44.91 87.94 47.06 87.94 48.51 87.94 50.31 87.94 52.5 87.94 54.34 87.95 55.82 87.95 57.06 87.94 59.31 87.94 62.77 85.84 62.77 82.8 62.78 80.47 62.78 79.29 62.78 77.64 62.78 76.84 62.78 72.87 62.78 71.15 62.79 68.55 62.79 67.32 62.78 65.6 62.78 65.16 62.79 63.4 62.79 62.16 62.78 60.8 62.79 59.52 62.79 57 62.78 57 58.89 57 55.56 57 52.85 57 51.2 57 47.39 57 44.5 57 43.62 57 39.87 57 36.45 57 34.08 57 32.3 57 30.13 57 27.95 57 25.82 57 24.09 57 22.86 57 21.68 57 21.65 57 21.62 57 21.49 57 21.46 57 21.44 57 21.42 57.09 21.55 57.13 21.78 57.19 21.91 57.28 21.87 57.55 21.96 57.55 22.09 57.8 22.05 57.88 21.81 58.22 21.56 58.16 21.47 58.19 21.31 58.43 21.38 58.44 21.71 58.79 21.57 58.7 21.72 58.8 21.76 58.94 21.97 58.88 22.17 59.1 22.24 59.18 22.08 59.53 22.19 59.6 22.12 59.36 21.92 59.28 21.7 59.4 21.5 59.36 21.4 59.33 21.05 59.21 21.04 59.22 20.83 59.45 20.9 59.58 20.89 59.79 21.03 59.9 21.03 59.97 20.92 59.82 20.78 59.64 20.81 59.67 20.62 59.51 20.63 59.48 20.49 59.51 20.17 59.58 20.05 59.77 19.99 59.75 19.88 59.88 19.82 59.81 19.6 59.67 19.64 59.64 19.79 59.42 19.66 59.35 19.51 59.19 19.52 59.09 19.64 58.95 19.65 58.88 19.78 58.46 19.51 58.42 19.4 58.24 19.35 58.26 19.05 58.43 18.85 58.41 18.71 58.59 18.52 58.7 18.29 58.85 18.3 58.96 18.11 59.04 18.17 59.16 17.98 59.25 17.97 59.49 17.86 59.57 17.72 59.57 17.52 59.45 17.43 59.48 17.27 59.68 17.05 59.73 16.86 59.72 16.61 59.87 16.23 59.85 16.06 59.99 15.99 60.2 16.1 60.4 16.13 60.52 16.1 60.81 15.85 60.88 15.88 61.02 15.76 61.13 15.55 61.33 15.4 61.33 15.29 61.21 15.08 60.99 14.83 60.85 14.8 60.91 14.59 60.86 14.48 60.93 14.16 60.93 13.95 61.05 13.87 61.18 14.01 61.3 14 61.46 13.92 61.59 13.77 61.68 13.5 61.65 13 61.79 13.07 61.9 12.91 62.03 12.9 62.23 13.13 62.45 13.19 62.72 13.18 62.74 13.1 62.5 13.01 62.36 12.85 62.52 12.81 62.39 12.64 62.46 12.42 62.43 12.27 62.55 12.16 62.43 12.05 62.62 11.98 62.79 12.09 63.04 12.14 63.05 12.33 63.15 12.57 63.34 12.6 63.44 12.5 63.68 12.43 63.62 12.34 63.38 12.22 63.32 12.14 63.43 11.88 63.53 11.79 63.73 11.85 63.93 11.74 63.98 11.42 63.86 11.27 63.9 11.17 64.04 11.11 64.13 11.19 64.28 11.16 64.42 11.21 64.65 11.42 64.76 11.17 64.8 10.88 64.88 10.77 64.99 10.93 64.96 11.2 65.04 11.38 65.33 11.58 65.51 11.62 65.81 11.6 66.21 11.62 66.47 11.58 66.75 11.48 66.9 11.37 67 11.42 67.14 11.59 67.53 11.7 67.78 11.53 67.92 11.37 68.22 11.23 68.28 11.41 68.53 11.31 68.76 11.53 68.75 11.32 68.85 11.12 69.12 11.03 69.23 10.94 69.41 11.04 69.59 11.06 69.49 10.91 69.45 10.65 69.57 10.19 69.51 9.97 69.32 9.84 69.56 9.59 69.59 9.44 69.82 9.37 69.61 9.23 69.39 9.31 69.22 9.21 69.17 9.1 69.19 8.94 68.86 8.65 68.54 8.6 68.36 8.69 68.13 8.65 67.99 8.77 67.7 8.92 67.55 8.89 67.44 8.75 67.52 8.61 67.36 8.56 67.11 8.42 67.03 8.3 67.03 8.18 66.88 8.08 66.74 7.82 67 7.81 67.09 7.89 67.28 7.81 67.23 7.7 67.36 7.49 67.45 7.7 67.56 7.7 67.62 7.85 67.71 7.86 67.66 8.11 67.75 8.21 67.84 8.21 67.83 8.39 67.9 8.47 68.03 8.49 68.14 8.24 68 8.1 67.97 7.88 68 7.82 67.81 7.57 67.81 7.46 67.96 7.48 68.04 7.67 68.15 7.79 68.23 7.78 68.26 7.65 68.39 7.64 68.55 7.56 68.62 7.74 68.63 7.98 68.88 7.8 68.96 7.94 69.06 7.99 69.05 8.2 69.21 8.24 69.24 8.32 69.51 8.59 69.54 8.78 69.64 8.87 69.85 8.88 70.1 8.6 70.15 8.46 70.4 8.55 70.45 8.4 70.39 8.34 70.48 8.21 70.66 8.52 70.79 8.57 70.92 8.81 71.03 8.89 71 8.98 71.14 9.3 71.29 9.55 71.59 9.64 71.9 9.5 71.98 9.59 71.82 9.66 71.87 9.78 72.19 9.74 72.35 9.88 72.59 9.74 72.57 9.97 72.7 9.91 72.84 9.92 72.87 10.04 73.04 9.94 73.11 9.82 73.28 9.82 73.44 9.73 73.5 9.62 73.64 9.6 73.72 9.72 73.95 9.75 73.83 9.93 73.72 9.91 73.59 10.02 73.8 10.28 73.95 10.31 74.15 10.23 74.21 10.12 74.33 10.08 74.41 10.19 74.67 10.31 74.8 10.45 74.74 10.57 74.86 10.72 74.76 10.98 75 10.73 75.07 10.73 75.07 10.56 75.19 10.54 75.26 10.64 75.44 10.77 75.64 10.84 75.91 10.86 76.26 10.79 76.48 10.64 76.58 10.47 76.86 10.47 76.95 10.78 77.11 10.82 77.15 11.07 77.32 11.15 77.46 11.13 77.59 11.22 77.66 11.37 77.84 11.54 78.14 11.45 78.33 11.64 78.41 11.65 78.54 11.61 78.57 11.52 78.72 11.52 78.83 11.47 78.88 11.36 79 11.24 79.09 11.27 79.12 11.26 79.16 11.19 79.34 11.12 79.48 11.14 79.64 10.93 79.9 10.74 80.14 10.63 80.22 10.63 80.44 10.52 80.51 10.61 80.32 10.74 80.21 10.9 79.88 11.22 79.88 11.33 80.02 11.51 80.09 11.55 80.31 11.54 80.34 11.39 80.63 11.21 80.7 11.28 80.82 11.18 81.08 11.03 80.99 11.27 80.83 11.4 80.96 11.58 81.06 11.57 81.12 11.45 81.25 11.44 81.09 11.86 81 11.94 81.13 12.02 81.07 12.18 81.19 12.31 81.3 12.14 81.37 12.24 81.61 12.17 81.63 12.25 81.78 12.28 81.89 12.23 82.13 12.03 82.33 11.5 82.26 11.34 81.87 11.37 81.81 11.14 82 10.86 82.12 10.77 82.25 10.8 82.32 10.68 82.48 10.5 82.7 10.47 82.71 10.65 82.91 10.57 83.03 10.9 83.11 10.93 83.07 11.14 83.14 11.32 83.31 11.45 83.33 11.59 83.53 11.63 83.63 11.58 83.71 11.45 83.54 11.32 83.58 11.22 83.78 11.18 83.87 11.34 84.09 11.4 84.18 11.59 84.28 11.62 84.27 11.83 84.33 11.93 84.18 12 83.75 12.51 83.81 12.22 83.59 12.32 83.63 12.46 83.59 12.7 83.47 12.85 83.41 13 83.47 13.15 83.24 13.12 83.15 13.26 83.23 13.39 83.17 13.54 82.96 13.26 82.89 13.32 82.9 13.5 82.76 13.48 82.72 13.59 82.94 13.77 82.95 13.87 83.28 14.03 83.14 14.16 82.87 14.11 82.83 14.24 82.91 14.38 83.02 14.43 82.9 14.73 82.73 14.81 82.7 14.97 82.61 14.98 82.43 15.11 82.26 15.38 82.25 15.16 82.41 15.04 82.34 14.9 82.32 14.72 82.34 14.4 82.23 14.36 82.15 14.45 82.14 14.8 81.95 14.74 81.88 14.76 81.91 14.96 81.82 14.95 81.77 15.09 81.58 15.05 81.57 14.65 81.35 14.98 81.22 15.25 81.14 14.99 81.08 14.97 80.81 15.17 80.68 15.4 80.67 15.51 80.8 15.56 80.84 15.71 80.69 15.73 80.59 15.82 80.58 16.08 80.62 16.23 80.52 16.27 80.55 16.42 80.74 16.66 80.67 16.72 80.73 16.86 80.96 16.87 81.19 16.66 81.2 16.89 81.11 17.07 81.14 17.19 81.05 17.33 81.04 17.44 80.89 17.55 80.77 17.78 80.79 17.94 80.7 18.18 80.67 18.43 80.44 18.64 80.35 18.66 80.22 18.81 80.12 18.86 79.95 19.22 79.95 19.32 79.77 19.35 79.61 19.66 79.48 19.86 79.43 20.11 79.37 20.23 79.23 20.27 79.07 20.48 78.96 20.44 79 20.75 79.14 21.13 79.26 21.34 79.63 21.6 79.88 21.62 80.16 21.86 80.24 21.87 80.66 22.14 80.77 22.32 80.97 22.49 81.26 22.61 81.61 22.86 81.77 22.86 81.91 22.96 81.91 23.04 82.01 23.39 82.09 23.54 82.24 23.66 82.69 23.86 82.84 24.04 83.05 24.18 83.11 24.07 83.25 23.98 83.29 23.89 83.57 23.98 83.44 24.23 83.35 24.32 83.54 24.56 83.48 24.77 83.58 24.84 83.73 24.68 84.03 24.74 84.2 24.82 84.22 24.72 84.37 24.63 84.52 24.61 84.64 24.76 84.81 24.88 85.07 24.98 85.22 25.09 85.39 25.13 85.58 25.42 85.75 25.52 86.06 25.62 86.12 25.67 86.4 25.7 87.04 25.96 87.24 26.29 87.53 26.69 87.75 26.86 87.94 27.06" style="fill:#fff;stroke:#767676;stroke-linecap:square;stroke-linejoin:bevel;stroke-width:0.5px"/><polygon points="61.83 7.6 61.98 7.75 62.2 8.01 62.34 7.98 62.49 8.05 62.52 8.16 62.35 8.32 62.44 8.45 62.65 8.35 62.85 8.64 63.05 8.74 62.88 8.39 63.1 8.32 63.36 8.29 63.57 8.13 64 8.34 64.03 8.15 64.4 7.92 64.48 8.05 64.46 8.14 64.6 8.24 64.65 8.14 64.57 7.93 64.64 7.82 64.85 7.7 64.97 7.84 64.9 7.97 65.12 7.92 65.25 7.98 65.36 7.95 65.36 8.1 65.47 8.19 65.5 8.42 65.6 8.39 65.73 8.5 65.75 8.63 65.6 8.7 65.47 8.88 65.46 9.02 65.52 9.19 65.33 9.2 65.21 9.13 65.03 9.47 64.88 9.61 64.78 9.64 64.51 9.85 64.17 10.01 64.05 10.18 63.95 10.2 63.81 10.37 63.71 10.39 63.62 10.25 63.39 10.07 63.2 10.04 62.94 9.89 62.82 9.88 62.77 9.76 62.5 9.59 62.35 9.43 62.17 9.39 62.08 9.24 62.13 9.04 61.93 8.82 61.91 8.53 61.85 8.35 61.77 8.25 61.84 8.1 61.69 7.92 61.73 7.61 61.83 7.6" style="fill:#fff;stroke:#767676;stroke-linecap:square;stroke-linejoin:bevel;stroke-width:0.5px"/><polygon points="83.58 16.57 83.55 16.77 83.43 16.88 83.59 17.16 83.85 17.3 83.95 17.26 83.97 16.89 84.2 16.96 84.24 17.07 84.03 17.43 83.82 17.5 83.72 17.67 83.72 17.97 83.58 18.06 83.49 18.26 83.51 18.43 83.59 18.51 83.78 18.51 83.82 18.36 83.98 18.48 84.01 18.56 84.16 18.55 84.25 18.39 84.39 18.42 84.29 18.55 84.35 18.69 84.34 18.83 84.19 18.86 84.14 18.93 84.02 18.82 83.95 18.86 83.77 18.76 83.59 18.76 83.42 18.86 83.26 18.84 83.23 18.77 82.94 18.74 82.77 18.67 82.46 18.46 82.61 18.24 82.52 18.03 82.49 17.73 82.58 17.42 82.48 17.25 82.58 17.14 82.79 17.22 82.89 17.15 83.24 17.05 83.18 16.85 83.07 16.68 83.2 16.66 83.28 16.74 83.47 16.59 83.58 16.57" style="fill:#fff;stroke:#767676;stroke-linecap:square;stroke-linejoin:bevel;stroke-width:0.5px"/><polygon points="61.64 8.2 61.72 8.43 61.83 8.62 61.74 8.82 61.81 8.95 62.04 9.08 62.03 9.25 62.11 9.41 62.47 9.58 62.65 9.71 62.54 9.98 62.32 9.96 62.17 10 61.8 9.88 61.53 9.78 60.85 9.98 60.55 9.91 60.51 9.79 60.66 9.75 60.7 9.42 60.98 9.55 61.14 9.34 61.14 9.13 61.04 9.01 61.14 8.86 61.08 8.75 61.06 8.56 61.22 8.49 61.32 8.36 61.31 8.25 61.64 8.2" style="fill:#fff;stroke:#767676;stroke-linecap:square;stroke-linejoin:bevel;stroke-width:0.5px"/><polygon points="80.76 9.71 80.85 9.81 80.74 10.07 80.59 10.17 80.49 10.35 80.33 10.51 80.19 10.52 80.06 10.61 79.73 10.72 79.59 10.86 79.54 10.78 79.58 10.61 79.69 10.43 79.81 10.51 79.98 10.35 80.17 10.38 80.33 10.28 80.64 10.01 80.76 9.71" style="fill:#fff;stroke:#767676;stroke-linecap:square;stroke-linejoin:bevel;stroke-width:0.5px"/><polygon points="83.71 7.11 83.61 7.49 83.52 7.76 83.39 7.82 83.36 7.96 83.23 8.1 83.11 8.39 82.89 8.61 82.8 8.6 82.79 8.44 83.07 8.2 83.1 8.02 83.3 7.77 83.51 7.62 83.5 7.48 83.62 7.29 83.61 7.18 83.71 7.11" style="fill:#fff;stroke:#767676;stroke-linecap:square;stroke-linejoin:bevel;stroke-width:0.5px"/><polygon points="79.43 10.82 79.6 10.96 79.48 11.13 79.34 11.12 79.17 11.18 79.1 11.26 78.97 11.23 78.91 11.25 78.82 11.44 78.71 11.47 78.58 11.35 78.55 11.25 78.69 11.18 78.69 11.05 78.82 11 78.9 10.9 79.04 10.9 79.08 11.01 79.26 11 79.43 10.82" style="fill:#fff;stroke:#767676;stroke-linecap:square;stroke-linejoin:bevel;stroke-width:0.5px"/><polygon points="69.37 6.9 69.32 7.04 69.4 7.46 69.31 7.57 69.45 7.84 69.45 8.03 69.36 8.2 69.27 8.19 69.19 7.92 69.04 7.75 68.97 7.59 69.06 7.54 69.09 7.33 69.05 7.23 69.26 7.12 69.24 7.01 69.37 6.9" style="fill:#fff;stroke:#767676;stroke-linecap:square;stroke-linejoin:bevel;stroke-width:0.5px"/><polygon points="84.51 23.57 84.63 23.74 84.79 23.81 84.78 24.19 84.89 24.26 84.86 24.39 84.66 24.49 84.48 24.26 84.45 24.04 84.29 24.09 84.3 23.93 84.39 23.77 84.53 23.69 84.51 23.57" style="fill:#fff;stroke:#767676;stroke-linecap:square;stroke-linejoin:bevel;stroke-width:0.5px"/><polygon points="81.85 16.59 81.96 16.64 82.1 16.83 82.01 16.86 81.96 17.2 81.81 17.19 81.67 16.97 81.59 17.02 81.66 17.21 81.45 17.16 81.49 17.02 81.46 16.88 81.65 16.91 81.72 16.64 81.85 16.59" style="fill:#fff;stroke:#767676;stroke-linecap:square;stroke-linejoin:bevel;stroke-width:0.5px"/><polygon points="82.33 9 82.3 9.14 82 9.37 81.81 9.43 81.98 9.07 82.19 9.12 82.33 9" style="fill:#fff;stroke:#767676;stroke-linecap:square;stroke-linejoin:bevel;stroke-width:0.5px"/><polygon points="82.15 10.51 82.16 10.63 81.92 10.76 81.76 10.88 81.63 10.75 81.77 10.68 81.89 10.69 82.15 10.51" style="fill:#fff;stroke:#767676;stroke-linecap:square;stroke-linejoin:bevel;stroke-width:0.5px"/><polygon points="83.08 23.31 83.19 23.36 83.13 23.56 83.15 23.72 83.09 23.8 82.85 23.82 82.82 23.59 82.84 23.43 83.04 23.37 83.08 23.31" style="fill:#fff;stroke:#767676;stroke-linecap:square;stroke-linejoin:bevel;stroke-width:0.5px"/><polygon points="59.52 19.9 59.51 20.04 59.09 20.28 59.03 20.21 59.02 20.04 59.38 20.03 59.52 19.9" style="fill:#fff;stroke:#767676;stroke-linecap:square;stroke-linejoin:bevel;stroke-width:0.5px"/><polygon points="69.24 9.3 69.3 9.36 69.55 9.4 69.5 9.6 69.38 9.63 69.18 9.59 69.05 9.46 69.08 9.29 69.24 9.3" style="fill:#fff;stroke:#767676;stroke-linecap:square;stroke-linejoin:bevel;stroke-width:0.5px"/><polygon points="83.73 23.77 83.93 23.85 83.88 23.99 83.75 24.16 83.59 24.18 83.62 23.82 83.73 23.77" style="fill:#fff;stroke:#767676;stroke-linecap:square;stroke-linejoin:bevel;stroke-width:0.5px"/><polygon points="82.71 8.7 82.64 8.91 82.37 9.04 82.42 8.9 82.51 8.87 82.71 8.7" style="fill:#fff;stroke:#767676;stroke-linecap:square;stroke-linejoin:bevel;stroke-width:0.5px"/><polygon points="81.48 15.5 81.6 15.61 81.69 15.78 81.6 16.05 81.5 15.91 81.56 15.71 81.48 15.5" style="fill:#fff;stroke:#767676;stroke-linecap:square;stroke-linejoin:bevel;stroke-width:0.5px"/><polygon points="81.19 9.33 81.27 9.35 81.05 9.6 80.9 9.51 80.92 9.45 81.19 9.33" style="fill:#fff;stroke:#767676;stroke-linecap:square;stroke-linejoin:bevel;stroke-width:0.5px"/><polygon points="77.14 10.75 77.33 10.85 77.4 10.93 77.31 11.1 77.19 11.06 77.14 10.75" style="fill:#fff;stroke:#767676;stroke-linecap:square;stroke-linejoin:bevel;stroke-width:0.5px"/><polygon points="78.2 11.4 78.35 11.44 78.56 11.4 78.53 11.6 78.41 11.64 78.27 11.51 78.2 11.4" style="fill:#fff;stroke:#767676;stroke-linecap:square;stroke-linejoin:bevel;stroke-width:0.5px"/><polygon points="72.17 9.11 72.37 9.13 72.3 9.23 72.09 9.31 71.97 9.26 72.17 9.11" style="fill:#fff;stroke:#767676;stroke-linecap:square;stroke-linejoin:bevel;stroke-width:0.5px"/><polygon points="82.84 16.72 82.93 16.86 82.91 17.02 82.78 17 82.69 16.86 82.84 16.72" style="fill:#fff;stroke:#767676;stroke-linecap:square;stroke-linejoin:bevel;stroke-width:0.5px"/><polygon points="68.63 10.87 68.77 11.02 68.66 11.1 68.48 10.92 68.63 10.87" style="fill:#fff;stroke:#767676;stroke-linecap:square;stroke-linejoin:bevel;stroke-width:0.5px"/><polygon points="58.67 17.98 58.87 18.16 58.72 18.23 58.67 17.98" style="fill:#fff;stroke:#767676;stroke-linecap:square;stroke-linejoin:bevel;stroke-width:0.5px"/><polygon points="72.37 8.68 72.45 8.86 72.32 8.86 72.19 8.78 72.37 8.68" style="fill:#fff;stroke:#767676;stroke-linecap:square;stroke-linejoin:bevel;stroke-width:0.5px"/><polygon points="84.11 23.28 84.14 23.56 84.01 23.58 83.98 23.41 84.11 23.28" style="fill:#fff;stroke:#767676;stroke-linecap:square;stroke-linejoin:bevel;stroke-width:0.5px"/><polygon points="80.15 20.84 80.27 20.93 80.27 21.08 80.15 21.05 80.09 20.93 80.15 20.84" style="fill:#fff;stroke:#767676;stroke-linecap:square;stroke-linejoin:bevel;stroke-width:0.5px"/><polygon points="77.49 10.65 77.59 10.73 77.44 10.82 77.33 10.69 77.49 10.65" style="fill:#fff;stroke:#767676;stroke-linecap:square;stroke-linejoin:bevel;stroke-width:0.5px"/><polygon points="62.22 12.6 62.21 12.91 62.12 12.85 62.13 12.69 62.22 12.6" style="fill:#fff;stroke:#767676;stroke-linecap:square;stroke-linejoin:bevel;stroke-width:0.5px"/><polygon points="67.77 9.04 67.84 9.2 67.71 9.24 67.77 9.04" style="fill:#fff;stroke:#767676;stroke-linecap:square;stroke-linejoin:bevel;stroke-width:0.5px"/><polygon points="57 21.14 57 21.1 57 21.01 57 21 57.09 21.01 57 21.14" style="fill:#fff;stroke:#767676;stroke-linecap:square;stroke-linejoin:bevel;stroke-width:0.5px"/><polygon points="141.44 71.35 141.22 71.3 140.78 71.67 140.5 71.61 140.35 71.73 140.2 71.66 140.13 71.84 140.04 71.89 139.9 72.1 139.7 72.03 139.34 72.01 139.13 71.92 138.98 71.95 138.84 72.08 138.69 72.12 138.6 72.05 138.31 71.91 138.25 71.84 138.1 72.02 137.92 71.89 137.96 71.73 137.87 71.67 137.7 71.71 137.44 72.14 137.17 72.12 137.03 72.23 136.86 72.47 136.67 72.4 136.53 72.52 136.38 72.55 136.16 72.77 135.95 72.75 135.96 72.92 136.06 72.99 136.08 73.17 136.16 73.33 136.24 73.33 136.37 73.5 136.24 73.7 136.24 74.1 136.19 74.23 135.84 74.38 135.75 74.32 135.56 74.32 135.54 74.5 135.33 74.42 135.24 74.33 135.16 74.14 134.86 74.36 134.54 74.48 134.37 74.8 134.35 75.02 134.03 75.38 133.84 75.39 133.76 75.22 133.63 75.06 133.67 74.89 133.62 74.62 133.64 74.46 133.36 74.21 132.96 74.01 132.86 74.07 132.82 73.87 132.7 73.63 132.49 73.61 132.34 73.42 132.23 73.44 132.05 73.3 131.81 73.2 131.41 73.37 131.22 73.29 131.07 73.36 130.9 73.3 130.75 73.32 130.51 73.15 130.44 72.97 130.22 72.82 129.93 72.96 129.79 72.89 129.5 73 129.29 72.99 129.03 73.14 128.8 73.08 128.31 73.14 128.11 73.2 128 73.07 127.75 72.95 127.5 72.98 127.3 73.12 127.26 73.27 127.14 73.44 127.02 73.4 126.8 73.51 126.44 73.78 126.42 73.86 126.23 74 126.13 74 125.99 74.19 125.94 74.42 125.65 74.67 124.27 74.67 122.85 74.67 121.57 74.67 119.71 74.67 118.04 74.67 116.76 74.67 115.48 74.67 113.75 74.67 112.04 74.67 110 74.67 107.58 74.67 105.16 74.67 103.72 74.67 101.32 74.67 100 74.67 98.27 74.67 98.27 74.61 98.26 72.82 98.26 70.95 98.26 69.36 98.26 67.84 98.27 65.77 98.27 64.62 98.27 62.77 96.25 62.77 94.25 62.77 93.16 62.77 91.37 62.77 89.27 62.77 87.94 62.77 87.94 59.31 87.95 57.06 87.95 55.82 87.94 54.34 87.94 52.5 87.94 50.31 87.94 48.51 87.94 47.06 87.94 44.91 87.94 42.66 87.95 39.56 87.94 36.14 87.94 34.74 87.94 33.11 87.93 32.44 87.94 30.42 87.94 28.75 87.94 27.06 88.11 27.19 88.3 27.4 88.56 27.6 88.9 27.72 89.07 27.83 89.22 27.8 89.42 27.93 89.8 27.95 90.11 27.9 90.26 28 90.5 28.08 90.66 28.18 91.05 28.36 91.33 28.34 91.53 28.44 91.54 28.55 91.73 28.76 91.94 28.86 91.89 29.02 91.94 29.38 92.11 29.79 92.22 29.92 92.47 30.07 92.59 30.11 92.86 30.12 93.03 30.22 93.43 30.52 93.62 30.73 93.88 30.77 94.03 30.86 94.22 30.84 94.29 30.94 94.64 31.08 94.65 31.22 94.84 31.38 95.13 31.4 95.54 31.33 96 31.28 96.2 31.23 96.62 31.07 96.78 30.96 96.88 30.95 97.19 30.68 97.34 30.63 97.48 30.5 97.68 30.44 97.89 30.1 97.97 29.64 98.07 29.43 98.12 29.18 98.09 28.93 98.18 28.67 98.34 28.51 98.49 28.3 98.57 28.03 98.68 27.98 98.86 27.79 99.04 27.5 99.08 27.25 99.2 27.13 99.32 26.85 99.27 26.65 99.39 26.31 99.47 25.92 99.67 25.6 99.76 25.36 99.71 25.24 99.58 24.79 99.7 24.54 99.73 24.14 99.78 23.86 99.9 23.34 100 23.16 100.23 22.54 100.27 22.2 100.45 22 100.44 21.83 100.57 21.56 100.32 20.94 100.23 20.49 100.18 20.15 100.19 19.97 100.09 19.58 100.16 19.22 100.33 18.79 100.35 18.61 100.31 18.42 100.33 18.19 100.24 18.01 100.03 17.79 99.89 17.56 99.88 17.38 100 16.76 100.02 16.5 100.08 16.25 100.2 15.98 100.32 15.86 100.41 15.62 100.47 15.56 100.75 15.61 100.78 15.54 100.65 15.41 100.81 15.36 100.79 15.28 100.59 15.45 100.67 15.17 100.66 15.06 100.44 14.76 100.39 14.53 100.41 14.36 100.28 14.19 100.47 13.87 100.83 13.67 100.91 13.52 101.04 13.14 101.04 13.06 101.16 12.89 101.47 12.72 101.38 12.68 101.11 12.77 100.95 12.66 100.88 12.53 100.67 12.46 100.64 12.32 100.56 12.26 100.53 12.47 100.68 12.54 100.43 12.7 100.31 12.63 100.5 12.17 100.65 11.77 100.74 11.44 100.8 11.4 101.09 10.72 101.2 10.54 101.33 10.55 101.48 10.87 101.57 10.76 101.7 10.82 101.74 10.71 101.69 10.6 101.53 10.52 101.55 10.15 101.64 9.81 101.72 9.71 101.77 9.43 101.91 8.97 102.05 8.63 102.14 8.34 102.15 7.91 102.25 7.44 102.22 7.18 102.15 6.95 102.2 6.82 102.37 6.71 102.57 6.69 102.71 6.72 102.94 6.59 102.98 6.47 103.12 6.27 103.17 6.04 103.44 5.99 103.55 5.91 103.77 6.16 103.58 6.45 103.49 6.51 103.5 6.69 103.69 6.55 103.84 6.64 103.91 6.79 104.02 6.82 104.02 6.93 104.22 6.91 104.3 7.11 104.42 7.28 104.47 7.57 104.42 7.82 104.46 8.04 104.54 8.06 104.66 8.24 104.7 8.39 104.58 8.56 104.61 8.79 104.59 9.02 104.67 9.29 104.69 9.7 104.64 9.9 104.73 10.12 104.97 10.24 105.05 10.35 105.33 10.35 105.49 10.24 105.63 10.28 105.79 10.57 105.66 10.85 105.48 11.16 105.46 11.31 105.48 11.51 105.43 11.68 105.44 11.84 105.77 11.83 105.95 11.97 106.07 12.02 106.11 12.23 106.09 12.39 106.2 12.59 106.38 12.63 106.67 12.84 106.55 12.98 106.53 13.11 106.39 13.49 106.36 13.8 106.51 13.82 106.56 13.72 106.7 13.65 106.86 13.7 107.03 13.64 106.92 13.84 106.87 14.02 106.93 14.23 106.9 14.32 106.9 14.74 106.95 14.82 106.94 15.1 106.97 15.38 107.02 15.47 107.17 15.54 107.21 15.79 107.15 16.03 107.17 16.17 107.05 16.46 107.02 16.8 106.99 16.89 107.03 17.07 107.19 17.3 107.3 17.68 107.48 17.84 107.57 18.27 107.56 18.5 107.66 18.74 107.72 19.02 107.85 19.27 108.1 19.52 108.25 19.57 108.6 19.57 108.93 19.42 109.17 19.2 109.27 19.04 109.27 18.76 109.46 18.79 109.51 18.88 109.66 18.93 110.06 18.77 110.17 18.67 110.3 18.41 110.65 18.76 110.6 18.91 110.63 19.13 110.84 19.12 110.73 19.37 110.75 19.57 110.89 19.68 110.95 19.81 111.27 19.83 111.29 19.96 111.49 20.04 111.71 20.03 111.87 20.3 111.88 20.47 112.01 20.54 112.11 20.69 112.28 20.71 112.43 20.8 112.65 20.87 112.83 20.84 112.8 21.02 113.04 21.3 113.25 21.27 113.23 21.39 113.05 21.57 112.85 21.96 112.86 22.16 112.97 22.38 113.14 22.37 113.2 22.44 113.03 22.58 113.03 22.81 112.92 22.91 112.86 23.08 113.01 23.26 112.97 23.39 113.14 23.51 113.13 23.82 113.28 24.06 113.31 24.22 113.25 24.38 113.34 24.52 113.26 24.75 113.43 24.87 113.64 25.24 113.65 25.37 113.55 25.73 113.65 25.86 113.68 26.09 113.56 26.19 113.47 26.35 113.48 26.5 113.43 26.69 113.46 26.8 113.65 26.85 113.64 26.94 113.84 27.28 113.97 27.43 114.04 27.6 114.17 27.65 114.35 27.79 114.38 27.92 114.52 28.02 114.62 28.21 114.7 28.27 114.66 28.4 114.73 28.5 114.92 28.3 115 28.39 115.15 28.37 115.23 28.26 115.33 28.4 115.14 28.67 115.1 28.99 115.3 29.23 115.38 29.64 115.46 29.76 115.55 30.04 115.73 30.2 115.7 30.62 115.93 30.96 115.99 31.14 115.87 31.31 115.86 31.59 115.8 31.66 115.87 31.91 115.79 32.25 115.81 32.34 115.7 32.45 115.5 32.88 115.5 33.1 115.56 33.4 115.85 33.74 115.96 33.78 116.06 34.08 116.13 34.08 116.26 34.27 116.49 34.31 116.64 34.38 116.66 34.49 116.6 34.84 116.48 35.18 116.42 35.54 116.46 35.72 116.62 35.92 116.83 36.13 117.04 36.42 117.25 36.51 117.4 36.66 117.84 36.86 117.97 36.81 118.14 36.84 118.17 37.01 118.53 37.27 118.85 37.17 118.99 36.92 119.06 36.91 119.12 37.15 119.08 37.25 119.15 37.42 119.31 37.58 119.33 37.7 119.46 37.65 119.81 37.73 119.95 37.66 120.03 37.68 120.43 37.7 120.55 37.75 120.7 38.04 120.86 38.24 120.94 38.55 120.67 38.64 120.76 38.75 120.92 38.77 120.98 38.96 121.22 39.22 121.42 39.27 121.59 39.24 121.48 38.96 121.59 38.79 121.73 38.78 121.83 38.86 121.84 39.06 121.9 39.33 122.05 39.53 122.35 39.59 122.44 39.47 122.64 39.43 122.74 39.65 123.12 39.71 123.27 39.82 123.15 40.05 123.33 40.15 123.31 40.24 123.58 40.46 123.85 40.47 123.94 40.4 123.87 40.14 124 40.12 124.08 40.21 124.26 40.25 124.35 40.39 124.36 40.6 124.42 40.66 124.63 40.69 124.74 40.88 124.94 40.84 125.07 40.9 125.08 41.06 125.25 41.19 125.23 41.41 125.4 41.69 125.53 41.8 125.31 41.85 125.2 41.75 125.14 41.55 124.82 41.73 124.64 42.06 124.88 42.46 125.12 42.78 125.12 42.91 125.46 43.19 125.62 43.15 125.87 43.35 125.87 43.54 126.1 43.53 126.17 43.61 126.32 43.63 126.44 43.74 126.51 43.91 126.55 44.17 126.49 44.2 126.43 44.44 126.53 44.52 126.66 44.55 126.81 44.67 126.8 44.83 126.89 45.01 126.82 45.23 126.8 45.51 126.94 45.45 127.12 45.53 127.1 45.63 127.31 45.72 127.48 45.7 127.3 46.04 127.38 46.31 127.29 46.45 127.28 46.67 127.42 46.79 127.39 47.13 127.49 47.38 127.59 47.49 127.6 47.76 127.69 47.92 127.71 48.1 127.85 48.46 128.05 48.67 128.14 48.7 128.24 48.87 128.18 48.96 128.21 49.11 128.15 49.3 128.51 49 128.56 48.85 128.73 48.98 128.85 49.27 129.11 49.44 129.25 49.42 129.1 49.18 129.05 48.97 128.94 48.7 128.94 48.51 129.11 48.06 129.39 47.87 129.51 48.02 129.59 48.23 129.71 48.36 129.81 48.56 129.84 48.74 129.99 48.88 130.18 48.91 130.61 49.2 130.78 49.38 131.11 49.53 131.27 49.57 131.19 49.31 131.07 49.08 131.07 48.81 131.17 48.6 131.37 48.66 131.58 48.77 131.66 49.06 131.81 49.08 131.73 49.35 131.52 49.33 131.62 49.49 131.71 49.51 131.78 49.65 131.92 49.55 131.91 49.83 132.09 49.99 131.95 50.68 131.89 51.43 131.81 51.7 131.96 51.81 131.96 52.01 132.05 52.06 132.09 52.2 131.95 52.38 131.96 52.56 132.04 52.8 132.23 53.03 132.16 53.14 131.86 53.11 131.74 53.06 131.66 53.16 131.7 53.26 131.66 53.43 131.72 53.57 131.81 53.5 131.91 53.56 131.95 53.55 131.97 53.51 132.02 53.34 132.17 53.37 132.29 53.53 132.41 53.57 132.55 53.53 132.58 53.33 132.72 53.32 132.59 53.07 132.74 52.92 132.87 52.91 133.22 53.15 133.48 53.11 133.45 53.53 133.52 53.7 133.66 53.81 133.71 54.05 133.44 54.26 133.22 54.05 133.17 54.14 133.27 54.32 133.49 54.34 133.78 54.55 133.9 54.77 134.15 54.99 134.17 55.12 134.24 55.16 134.28 55.26 134.32 55.26 134.32 55.22 134.36 55.18 134.41 55.22 134.46 55.21 134.49 55.37 134.67 55.22 134.78 54.94 134.99 54.98 135.05 55.06 135.3 55.17 135.38 55.48 135.56 55.69 135.71 55.7 135.92 55.96 136.08 56.54 136.19 56.82 136.44 57.23 136.64 57.46 136.89 57.61 137.07 57.78 137.28 57.87 137.42 57.86 137.68 58.12 137.76 58.27 137.81 58.56 137.8 58.82 138.12 59.37 138.28 59.47 138.23 59.6 138.35 59.77 138.51 59.89 139.19 59.98 139.28 60.31 139.28 60.55 139.4 60.61 139.21 60.81 139.24 60.94 139.16 61.02 139.13 61.26 139.25 61.51 139.28 61.77 139.51 61.89 139.5 61.99 139.71 62.18 139.79 62.1 139.86 62.38 140.05 62.58 140.17 62.57 140.02 62.95 139.82 63.65 139.77 64.08 139.82 64.26 139.95 64.27 139.87 64.87 139.92 65.39 140.03 65.46 140.03 65.83 139.97 66.03 140.11 66.66 140.27 67.05 140.13 67.1 140.06 67.01 139.78 67.16 139.66 67.43 139.86 67.52 139.95 67.63 139.78 67.79 139.84 68.02 140.01 68.12 140.2 68.15 140.14 68.38 140.23 68.58 140.44 68.61 140.52 68.87 140.6 68.93 140.63 69.33 140.77 69.47 140.76 69.67 140.85 69.82 140.97 69.83 140.84 70.07 141.03 70.56 141.08 70.95 141.2 71.17 141.31 71.3 141.44 71.35" style="fill:#fff;stroke:#767676;stroke-linecap:square;stroke-linejoin:bevel;stroke-width:0.5px"/><polygon points="140.43 57.72 140.47 57.78 140.45 58.29 140.53 58.6 140.66 58.74 140.76 58.76 140.78 58.94 140.32 60.04 140.05 60.72 139.91 61.09 139.82 61.52 139.85 61.8 139.81 61.97 139.65 61.95 139.54 61.74 139.43 61.23 139.35 61.16 139.51 60.87 139.49 60.68 139.67 60.38 139.73 60.22 139.69 59.96 139.72 59.82 139.54 59.73 139.65 59.58 139.83 59.48 140.11 59.21 140.35 58.8 140.34 58.56 140.2 58.32 139.96 58.15 140.19 57.86 140.43 57.72" style="fill:#fff;stroke:#767676;stroke-linecap:square;stroke-linejoin:bevel;stroke-width:0.5px"/><polygon points="93.29 26.51 93.48 26.56 93.6 26.71 93.73 26.75 93.8 26.84 93.77 27.05 93.67 26.99 93.45 27.12 93.39 26.93 93.29 26.86 93.05 27.03 93.03 27.34 92.92 27.39 92.95 27.53 92.82 27.54 92.75 27.42 92.47 27.76 92.18 27.76 92.09 27.68 92.05 27.53 91.92 27.41 91.95 27.31 92.13 27.18 92.15 27.05 92.48 26.77 92.85 26.72 92.98 26.73 93.24 26.58 93.29 26.51" style="fill:#fff;stroke:#767676;stroke-linecap:square;stroke-linejoin:bevel;stroke-width:0.5px"/><polygon points="116.25 33.16 116.34 33.31 116.51 33.3 116.42 33.55 116.64 34.03 116.61 34.2 116.52 34.26 116.31 34.24 116.17 34.06 116.19 33.9 116.02 33.63 115.83 33.5 115.72 33.35 115.83 33.3 115.99 33.34 116.16 33.46 116.28 33.41 116.25 33.16" style="fill:#fff;stroke:#767676;stroke-linecap:square;stroke-linejoin:bevel;stroke-width:0.5px"/><polygon points="141.12 68.24 141.27 68.37 141.42 68.38 141.22 68.97 141.14 69.3 141.12 69.57 141.02 69.64 140.91 69.51 140.94 69.44 140.92 69.32 140.99 69.27 140.96 69.16 140.97 68.72 141.06 68.27 141.12 68.24" style="fill:#fff;stroke:#767676;stroke-linecap:square;stroke-linejoin:bevel;stroke-width:0.5px"/><polygon points="102.4 5.57 102.58 5.78 102.67 5.95 102.51 6.08 102.43 6.04 102.33 6.2 102.24 6.18 102.11 6.01 102.1 5.8 102.4 5.57" style="fill:#fff;stroke:#767676;stroke-linecap:square;stroke-linejoin:bevel;stroke-width:0.5px"/><polygon points="141.12 66.8 141.16 66.82 141.05 67.2 140.94 67.83 140.81 67.49 140.82 67.13 140.8 66.94 141.12 66.8" style="fill:#fff;stroke:#767676;stroke-linecap:square;stroke-linejoin:bevel;stroke-width:0.5px"/><polygon points="93.13 28.69 93.26 28.86 93.33 29.02 93.18 29.2 93.02 29.1 92.81 29.2 92.76 29.09 93.08 28.81 93.13 28.69" style="fill:#fff;stroke:#767676;stroke-linecap:square;stroke-linejoin:bevel;stroke-width:0.5px"/><polygon points="102.67 3.88 102.86 3.96 102.91 4.05 102.74 4.3 102.62 4.31 102.45 4.25 102.36 4.13 102.45 3.94 102.54 3.88 102.67 3.88" style="fill:#fff;stroke:#767676;stroke-linecap:square;stroke-linejoin:bevel;stroke-width:0.5px"/><polygon points="131.74 53.1 131.97 53.16 132.17 53.28 131.97 53.35 131.95 53.54 131.88 53.54 131.77 53.44 131.66 53.43 131.71 53.27 131.66 53.16 131.74 53.1" style="fill:#fff;stroke:#767676;stroke-linecap:square;stroke-linejoin:bevel;stroke-width:0.5px"/><polygon points="125.67 40.45 125.71 40.61 125.96 40.96 125.85 41.06 125.67 41.1 125.63 40.97 125.67 40.45" style="fill:#fff;stroke:#767676;stroke-linecap:square;stroke-linejoin:bevel;stroke-width:0.5px"/><polygon points="128.91 47.59 128.91 47.75 128.99 47.89 129 48.1 128.87 48.33 128.76 48.01 128.83 47.64 128.91 47.59" style="fill:#fff;stroke:#767676;stroke-linecap:square;stroke-linejoin:bevel;stroke-width:0.5px"/><polygon points="102.33 3.65 102.38 3.81 102.37 3.98 102.18 4.08 102.05 3.95 102.03 3.83 102.15 3.71 102.33 3.65" style="fill:#fff;stroke:#767676;stroke-linecap:square;stroke-linejoin:bevel;stroke-width:0.5px"/><polygon points="104.02 1.23 104.14 1.25 104.28 1.2 104.46 1.21 104.29 1.36 104 1.4 103.78 1.34 103.91 1.2 104.02 1.23" style="fill:#fff;stroke:#767676;stroke-linecap:square;stroke-linejoin:bevel;stroke-width:0.5px"/><polygon points="130.89 48.18 131.03 48.26 131.04 48.37 131.14 48.5 131.1 48.61 130.91 48.59 130.84 48.49 130.89 48.18" style="fill:#fff;stroke:#767676;stroke-linecap:square;stroke-linejoin:bevel;stroke-width:0.5px"/><polygon points="125.66 40.09 125.6 40.29 125.6 40.49 125.4 40.46 125.39 40.33 125.48 40.24 125.5 40.11 125.66 40.09" style="fill:#fff;stroke:#767676;stroke-linecap:square;stroke-linejoin:bevel;stroke-width:0.5px"/><polygon points="118.44 36.52 118.52 36.59 118.35 36.82 118.24 36.74 118.19 36.57 118.42 36.58 118.44 36.52" style="fill:#fff;stroke:#767676;stroke-linecap:square;stroke-linejoin:bevel;stroke-width:0.5px"/><polygon points="102.56 0.8 102.67 0.91 102.39 0.9 102.21 0.8 102.48 0.71 102.56 0.8" style="fill:#fff;stroke:#767676;stroke-linecap:square;stroke-linejoin:bevel;stroke-width:0.5px"/><polygon points="117.46 34.94 117.6 35.04 117.69 35.31 117.46 35.21 117.5 35.07 117.46 34.94" style="fill:#fff;stroke:#767676;stroke-linecap:square;stroke-linejoin:bevel;stroke-width:0.5px"/><polygon points="102.77 5.48 102.84 5.63 102.63 5.74 102.53 5.61 102.57 5.54 102.77 5.48" style="fill:#fff;stroke:#767676;stroke-linecap:square;stroke-linejoin:bevel;stroke-width:0.5px"/><polygon points="132.46 53.27 132.53 53.32 132.53 53.48 132.41 53.57 132.3 53.53 132.27 53.4 132.46 53.27" style="fill:#fff;stroke:#767676;stroke-linecap:square;stroke-linejoin:bevel;stroke-width:0.5px"/><polygon points="129.27 47.78 129.32 47.86 129.04 48.05 129.06 47.9 129.27 47.78" style="fill:#fff;stroke:#767676;stroke-linecap:square;stroke-linejoin:bevel;stroke-width:0.5px"/><polygon points="128.32 48.73 128.44 48.81 128.36 49.01 128.2 49.03 128.32 48.73" style="fill:#fff;stroke:#767676;stroke-linecap:square;stroke-linejoin:bevel;stroke-width:0.5px"/><polygon points="141.07 69.64 141.02 70.19 140.95 70.01 141.04 69.83 141.07 69.64" style="fill:#fff;stroke:#767676;stroke-linecap:square;stroke-linejoin:bevel;stroke-width:0.5px"/><polygon points="134.24 55.02 134.54 55.14 134.43 55.2 134.39 55.18 134.35 55.18 134.31 55.2 134.2 55.1 134.24 55.02" style="fill:#fff;stroke:#767676;stroke-linecap:square;stroke-linejoin:bevel;stroke-width:0.5px"/><polygon points="92 27.55 92.04 27.72 91.96 27.83 91.88 27.68 92 27.55" style="fill:#fff;stroke:#767676;stroke-linecap:square;stroke-linejoin:bevel;stroke-width:0.5px"/><polygon points="130.09 45.96 130.27 46.13 130.2 46.18 130.06 46.12 130.09 45.96" style="fill:#fff;stroke:#767676;stroke-linecap:square;stroke-linejoin:bevel;stroke-width:0.5px"/><polygon points="123.91 39.76 124 39.86 123.99 40.05 123.86 39.94 123.91 39.76" style="fill:#fff;stroke:#767676;stroke-linecap:square;stroke-linejoin:bevel;stroke-width:0.5px"/><polygon points="140.94 69.23 140.89 69.31 140.92 69.46 140.81 69.47 140.8 69.27 140.94 69.23" style="fill:#fff;stroke:#767676;stroke-linecap:square;stroke-linejoin:bevel;stroke-width:0.5px"/><polygon points="98.27 74.67 98.27 76.56 98.27 79.11 98.28 80.49 98.28 82.78 98.28 84.33 98.28 86.47 98.28 87.81 98.28 89.92 98.28 92.45 98.28 94.3 98.28 95.38 98.17 95.27 98.15 95.7 98.16 97.23 98.16 99.54 98.17 101.06 98.16 102.41 98.14 103.06 98.15 103.86 98.16 106.06 98.17 108.17 98.17 110.87 98.16 112.91 97.73 112.84 97.41 112.92 97.11 112.91 97.04 112.84 96.62 112.61 96.39 112.37 96.13 112.2 96.08 112.03 95.81 111.46 95.48 110.98 95.23 110.79 95.28 110.62 95.01 110.34 94.82 110.35 94.31 109.67 94.01 109.08 93.99 108.94 94.13 108.88 94.11 108.68 93.96 108.55 93.95 108.33 93.7 108.04 93.91 107.87 94.08 107.78 94.33 107.45 94.36 106.88 94.16 106.03 93.82 105.17 93.65 104.82 93.38 104.33 93.06 103.86 92.59 103.26 92.02 102.69 91.63 102.37 91.12 102.02 91.18 101.98 91.44 102.1 91.54 102.24 92.08 102.68 92.3 102.9 92.95 103.62 93.22 103.98 93.55 104.5 93.56 104.37 93.46 104.26 93.36 103.96 93.03 103.53 92.71 103.18 92.28 102.76 91.69 102.26 91.73 102.11 91.67 101.9 91.89 101.69 92.26 101.67 92.38 101.6 92.61 101.64 92.69 101.54 92.3 100.95 92.11 100.88 91.94 101.02 91.95 101.15 91.71 101.22 91.34 101.27 91.24 101.47 91.33 101.77 90.93 101.61 90.78 101.61 90.66 101.72 90.4 101.75 90.31 101.86 90.13 101.88 90 102.1 89.77 102.31 89.43 102.26 89.38 102.3 88.87 102.3 88.76 102.38 88.53 102.39 88.29 102.23 88.39 101.93 88.54 101.77 88.63 101.8 88.98 101.55 89.09 101.3 89.2 101.17 89.48 101.03 89.48 100.73 89.58 100.57 89.57 100.05 89.74 99.67 89.72 99.41 89.6 98.93 89.64 98.76 89.87 98.69 89.83 98.5 89.44 98.11 89.43 97.99 89.15 97.67 89.12 97.54 88.87 97.32 88.79 96.98 88.71 96.83 88.69 96.58 88.59 96.45 88.47 96.44 88.52 96.25 88.28 95.86 88.11 96.04 87.98 96.39 88.04 96.45 87.97 96.79 87.68 97.09 87.57 97.44 87.53 97.81 87.64 97.89 87.54 98.12 87.55 98.24 87.47 98.57 87.27 99.03 87.22 99.31 87.13 99.52 87.14 99.73 87.05 100.1 86.87 100.26 86.71 100.27 86.43 100.05 86.28 100.05 85.98 99.96 85.71 100.14 85.67 100.26 85.41 100.23 85.27 100.3 85.17 100.53 84.97 100.59 84.69 100.5 84.53 100.5 84.32 100.76 84.03 100.78 83.93 100.61 83.99 100.36 84.14 100.34 84.29 100.14 84.39 99.9 84.3 99.68 84.41 99.54 84.44 99.29 84.59 99.11 84.79 99.19 85.01 99.19 85.19 99.12 85.46 99.08 85.56 99.21 85.81 99.34 86.05 99.17 86.09 99.07 86.09 98.73 86.26 98.05 86.26 97.77 86.15 97.49 86.19 97.33 86.16 96.94 86.23 96.63 86.23 96.22 86.07 95.86 86.31 95.83 86.47 95.46 86.45 95.15 86.67 94.96 86.58 94.76 86.73 94.56 87.02 94.29 87.05 94.19 87.53 93.59 87.84 93.45 87.64 92.91 87.51 92.73 87.53 92.46 87.31 92.24 87.4 91.91 87.53 91.81 87.97 91.61 88.1 91.41 88.02 91.22 87.79 91.11 87.7 90.55 87.65 90.45 87.62 90.14 87.67 89.97 87.41 89.8 87.45 89.6 87.32 89.48 87.29 89.23 87.13 89.19 87.15 89.38 87.11 89.69 87.31 90.01 87.27 90.15 87.31 90.45 87.23 90.71 87.11 90.71 87.21 91 87.01 91.03 86.89 90.9 86.72 90.88 86.61 90.97 86.57 91.23 86.49 91.25 86.29 91.53 86.08 91.63 86.03 91.98 85.88 92.28 85.82 92.51 85.85 92.65 85.76 92.91 85.61 93.05 85.48 93.46 85.26 93.85 85 94.01 84.74 94.02 84.52 94.12 84.33 93.89 84.19 94.11 84.09 94.15 84.11 94.33 84.01 94.43 83.83 94.45 83.76 94.57 83.56 94.6 83.3 94.81 83.11 94.86 82.99 95.07 82.82 95.23 82.61 95.3 82.34 95.56 82.19 96.05 82 96.29 81.97 96.42 81.69 96.72 81.56 96.73 81.44 96.88 81.49 97.01 81.46 97.46 81.34 97.34 81.17 97.33 80.85 97.52 80.75 97.84 80.6 97.98 80.54 98.49 80.35 98.71 80.51 98.76 80.73 98.7 80.83 98.55 80.95 98.62 81.09 98.58 81.06 98.8 80.95 98.88 81.05 99.22 81.08 99.43 80.88 99.55 80.85 99.34 80.58 99.18 80.55 99.03 80.28 98.93 80.09 98.97 80 99.31 79.79 99.17 79.72 99.02 79.37 98.62 79.27 98.44 79.08 98.28 78.85 98.18 78.78 97.9 78.67 97.83 78.5 97.62 78.24 97.64 78.06 97.77 78.14 97.41 78.3 97.15 78.39 97.19 78.38 97.38 78.74 97.49 78.67 97.62 78.85 97.73 78.94 98.02 79.28 97.92 79.16 97.73 79.17 97.56 78.94 97.47 79 97.38 78.98 97.16 78.91 97.11 78.82 96.39 78.72 96.12 78.47 95.91 78.59 95.77 78.61 95.58 78.51 95.2 78.08 94.59 77.94 94.47 77.8 94.26 77.55 94.05 77.11 93.73 77.09 93.56 77.17 93.37 77.12 92.95 76.96 92.45 76.82 92.36 76.67 92.17 76.51 92.08 76.67 91.88 76.6 91.79 76.36 91.75 76.26 91.65 76.12 91.74 75.95 91.75 75.64 91.69 75.47 91.8 75.44 91.63 75.35 91.47 75.21 91.56 75.44 91.69 75.41 91.86 75.33 91.9 75.09 91.69 75.11 91.5 74.98 91.24 74.79 91.29 74.71 91.19 74.9 91.07 74.88 90.88 74.75 90.75 74.45 90.72 74.46 90.57 74.6 90.52 74.68 90.37 74.62 90.17 74.41 89.91 74.5 89.86 74.7 89.89 74.89 90.02 75.11 89.93 75.21 89.67 75.16 89.59 75.13 89.32 74.84 88.91 74.63 88.79 74.32 88.81 74.17 88.92 73.93 88.96 73.74 89.14 73.67 88.99 73.75 88.62 74.04 88.52 73.86 88.22 73.58 87.87 73.41 88 73.38 87.77 73.22 87.71 73.07 87.46 73.07 87.34 72.88 87.26 72.77 87.29 72.77 87.49 72.67 87.6 72.46 87.5 72.38 87.32 72.23 87.45 72.3 87.64 72.22 87.72 71.92 87.65 71.73 87.66 71.68 87.74 71.41 87.62 71.25 87.64 70.96 87.33 70.54 87.13 70.24 86.88 69.9 86.69 69.59 86.72 69.32 86.62 69.13 86.63 68.88 86.74 68.83 86.9 68.53 86.95 68.49 87 68.24 87.03 67.93 86.98 67.84 86.91 67.71 86.69 67.31 86.39 67.21 86.28 66.83 86.02 66.76 85.94 66.31 85.63 65.36 85.11 64.5 84.71 64.36 84.69 64.19 84.78 64.07 84.93 63.65 85.13 63.32 85.25 63.12 85.28 62.75 85.25 62.37 85.19 62.09 85.22 61.39 85.14 60.98 85.15 60.84 85.19 60.24 85.2 59.97 85.27 59.36 85.32 58.83 85.34 58.35 85.42 57.69 85.49 57.14 85.56 57 85.61 57 84.3 57 81.82 57 79.98 57 78.7 57 74.8 57 70.67 57 66.71 57 64.68 57 62.78 59.52 62.79 60.8 62.79 62.16 62.78 63.4 62.79 65.16 62.79 65.6 62.78 67.32 62.78 68.55 62.79 71.15 62.79 72.87 62.78 76.84 62.78 77.64 62.78 79.29 62.78 80.47 62.78 82.8 62.78 85.84 62.77 87.94 62.77 89.27 62.77 91.37 62.77 93.16 62.77 94.25 62.77 96.25 62.77 98.27 62.77 98.27 64.62 98.27 65.77 98.26 67.84 98.26 69.36 98.26 70.95 98.26 72.82 98.27 74.61 98.27 74.67" style="fill:#fff;stroke:#767676;stroke-linecap:square;stroke-linejoin:bevel;stroke-width:0.5px"/><polygon points="86.69 101.97 86.5 102.18 86.73 102.36 86.51 102.6 86.56 102.71 87.04 102.71 87.2 102.66 87.28 102.81 87.08 103.02 87.26 103.14 87.59 102.81 87.64 102.63 87.97 102.67 88.2 102.82 88.19 102.93 88.37 103.08 88.34 103.2 88.1 103.45 87.75 103.27 87.52 103.3 87.4 103.23 87.08 103.21 87.02 103.33 86.87 103.33 86.64 103.46 86.58 103.59 86.65 103.76 86.55 103.94 86.37 103.97 86.11 104.19 85.8 103.85 85.48 103.83 85.28 103.76 84.97 104.01 84.88 103.94 84.33 103.98 84.23 104.04 84.06 103.94 83.69 104.08 83.52 104.01 83.36 103.74 83.07 103.56 82.93 103.42 83.01 103.22 83.05 102.84 83.11 102.76 83.48 102.72 83.86 102.56 84.35 102.44 84.75 102.42 85.01 102.25 85.23 102.23 85.6 102.03 86.06 102.11 86.21 102.03 86.39 102.08 86.48 101.99 86.69 101.97" style="fill:#fff;stroke:#767676;stroke-linecap:square;stroke-linejoin:bevel;stroke-width:0.5px"/><polygon points="73.08 87.86 72.86 87.98 72.83 88.18 72.64 88.14 72.66 87.99 73.08 87.86" style="fill:#fff;stroke:#767676;stroke-linecap:square;stroke-linejoin:bevel;stroke-width:0.5px"/><polygon points="91.01 101.66 91.21 101.77 90.92 101.88 90.75 101.8 91.01 101.66" style="fill:#fff;stroke:#767676;stroke-linecap:square;stroke-linejoin:bevel;stroke-width:0.5px"/><polygon points="76.02 93.94 75.98 94.09 75.81 94.28 75.8 94.03 76.02 93.94" style="fill:#fff;stroke:#767676;stroke-linecap:square;stroke-linejoin:bevel;stroke-width:0.5px"/><polygon points="111.11 124.73 111.13 124.88 111.45 125.01 111.49 125.1 111.76 125.19 111.96 125.12 112.21 125.15 112.49 125.41 112.92 125.39 112.93 125.14 113.06 125.19 112.96 125.44 113.22 125.63 113.36 125.61 113.58 125.72 113.79 125.69 113.97 125.93 114.28 126.04 114.56 126.08 114.53 126.17 114.8 126.44 115.35 126.61 115.73 126.85 116.1 127.03 116.46 127.07 116.59 127.03 116.88 127.11 117.07 127.06 117.35 126.91 117.48 127.05 117.7 126.83 117.93 126.67 118.15 126.7 118.27 126.87 118.36 127.15 118.5 127.02 118.67 127.15 118.58 127.29 118.88 127.67 118.96 127.61 118.73 127.38 118.73 127.14 118.49 126.93 118.32 126.93 118.24 126.61 118.5 126.41 118.75 126.43 118.91 126.24 119.1 126.25 119.43 126.38 119.69 126.26 119.77 126.11 119.95 126.12 120.1 126.04 120.16 126.21 120.28 126.33 120.45 126.33 120.68 126.14 120.99 125.61 121.19 125.5 121.35 125.67 121.5 125.65 121.59 125.75 121.79 125.79 121.98 125.7 122.11 125.48 122.27 125.11 122.63 125.25 122.79 125.5 123.09 125.6 123.17 125.78 123.39 126.05 123.5 126.32 123.39 126.47 123.28 126.92 123.34 127.1 123.33 127.38 123.5 127.58 123.23 127.86 123.45 127.9 123.36 128.11 123.27 128.46 123.34 128.91 123.44 129.01 123.46 129.21 123.38 129.35 123.26 130.08 123.29 130.29 123.47 130.62 123.4 130.7 123.33 131.19 123.54 131.57 123.44 131.81 123.58 131.93 123.44 132.32 123.24 132.21 123.36 131.95 123.27 131.74 123.4 131.64 123.07 131.38 122.9 131.37 122.6 131.54 122.64 131.68 122.59 131.92 122.41 132.14 122.36 132.44 122.44 132.64 122.29 132.94 122.4 133.15 122.32 133.51 122.2 133.63 121.97 133.6 122.17 133.91 122.23 134.24 122.17 134.46 121.95 134.64 121.9 134.93 121.76 135.19 121.92 135.19 121.98 135.02 122.35 135.36 122.34 135.64 122.1 135.89 122.2 136.08 122.3 136.43 122.16 136.71 121.99 136.68 121.97 136.37 121.86 136.43 121.85 136.65 121.66 136.82 121.37 136.71 121.3 136.58 121.28 136.27 121.08 136.13 121.08 135.76 121.22 135.77 121.24 135.46 121.41 135.54 121.37 135.73 121.58 136.04 121.82 136.04 121.91 135.9 121.74 135.66 121.83 135.54 121.72 135.29 121.42 135.26 121.26 135.3 121.02 135.11 120.98 134.83 120.68 134.74 120.61 134.95 120.62 135.35 120.76 135.49 120.71 135.88 120.54 135.89 120.48 135.47 120.29 135.21 120.16 135.19 120.16 135.45 120.05 135.71 120.1 136.01 120 136.07 119.74 136.52 119.81 136.81 119.74 137.08 119.49 137.14 119.23 136.83 118.81 136.7 119.26 137.14 118.93 137.35 119.12 137.47 118.95 137.88 118.73 137.88 118.75 138.35 118.53 138.42 118.64 138.67 118.45 138.83 118.29 138.71 118.06 138.71 117.96 138.83 117.83 138.66 117.72 138.66 117.45 138.31 117.05 138.4 116.76 138.36 116.67 138.27 116.47 138.41 116.34 138.14 116.08 138.24 115.97 138.21 115.72 138.46 115.6 138.43 115.58 138.03 115.46 137.73 115.31 137.51 115.4 137.41 115.71 137.47 116.25 137.51 116.24 137.38 116.08 137.24 115.88 137.46 115.68 137.35 115.58 137.43 115.41 137.32 115.32 137.12 115.03 137.33 114.84 137.12 114.73 136.67 114.42 136.34 114.06 135.65 113.74 135.73 113.73 135.48 113.62 135.32 113.49 135 113.48 134.83 113.34 134.6 113.3 134.13 113.2 134.11 112.99 133.68 112.8 132.69 112.71 132.56 112.8 132.16 113.11 132.43 113.11 132.53 113.8 133.08 113.87 132.94 113.85 132.72 113.76 132.59 113.52 132.5 113.28 132.12 113.27 131.84 112.92 131.85 112.95 131.65 112.92 131.31 112.72 130.78 112.34 130.39 112.11 130.09 112.02 129.86 111.79 129.48 111.64 129.04 111.27 128.36 111.25 127.98 111.08 127.74 110.95 127.41 110.99 127.26 110.88 126.88 110.92 126.78 110.77 126.33 110.7 126.01 110.92 125.9 111 125.79 111.05 125.55 110.99 125.42 111.04 125.25 110.93 125 110.95 124.8 111.11 124.73" style="fill:#fff;stroke:#767676;stroke-linecap:square;stroke-linejoin:bevel;stroke-width:0.5px"/><polygon points="122.16 120.42 122.22 120.61 122.32 120.63 122.79 121.24 122.96 121.43 123.25 121.55 123.32 121.69 123.34 122.02 123.17 122.17 123.31 122.23 123.49 122.67 123.33 122.76 123.24 122.66 123.08 122.67 122.99 122.85 122.73 122.92 122.52 122.85 122.49 122.59 122.41 122.44 122.38 122.18 122.2 122.07 122.15 121.89 121.99 121.86 121.91 121.74 122.03 121.59 121.95 121.3 121.83 121.23 121.68 121.32 121.49 121.12 121.9 120.74 121.94 120.61 122.16 120.42" style="fill:#fff;stroke:#767676;stroke-linecap:square;stroke-linejoin:bevel;stroke-width:0.5px"/><polygon points="108.43 119.77 108.78 119.99 108.98 120.19 108.94 120.57 109.04 120.88 108.97 121.07 108.98 121.29 109.07 121.35 109.04 121.66 108.95 121.83 108.67 122.13 108.33 122.3 108.18 122.26 108.12 121.97 108.22 121.94 108.2 121.59 108.02 121.34 108.13 120.94 108.08 120.66 108.07 120.37 108.22 120.32 108.33 120.18 108.34 119.83 108.43 119.77" style="fill:#fff;stroke:#767676;stroke-linecap:square;stroke-linejoin:bevel;stroke-width:0.5px"/><polygon points="120.15 136.08 120.3 136.39 120.35 136.76 120.41 136.87 120.15 137.04 120.02 137.26 120.03 137.46 120.23 137.57 120.08 137.82 120.05 138.16 119.94 138.27 119.75 138.13 119.75 137.82 119.48 138.02 119.52 137.68 119.65 137.62 119.75 137.26 120.06 137.15 120.23 136.78 119.95 136.59 119.92 136.46 120.15 136.08" style="fill:#fff;stroke:#767676;stroke-linecap:square;stroke-linejoin:bevel;stroke-width:0.5px"/><polygon points="123.53 123.09 123.85 123.52 123.91 123.71 123.69 123.91 123.57 123.95 123.44 123.69 123.34 123.67 123.13 123.84 123.04 123.71 122.65 123.8 122.49 123.73 122.37 123.43 122.62 123.29 122.92 123.3 123.14 123.22 123.28 123.24 123.53 123.09" style="fill:#fff;stroke:#767676;stroke-linecap:square;stroke-linejoin:bevel;stroke-width:0.5px"/><polygon points="122.61 133.71 122.77 133.79 122.91 134.1 122.84 134.18 122.63 134.15 122.67 134.44 122.39 134.49 122.49 134.26 122.45 134 122.61 133.71" style="fill:#fff;stroke:#767676;stroke-linecap:square;stroke-linejoin:bevel;stroke-width:0.5px"/><polygon points="111.79 124.57 112.08 124.84 112.1 124.97 111.67 125.11 111.59 125.05 111.6 124.83 111.79 124.57" style="fill:#fff;stroke:#767676;stroke-linecap:square;stroke-linejoin:bevel;stroke-width:0.5px"/><polygon points="123.2 123.91 123.13 124.21 122.97 124.43 122.75 124.3 122.75 124.04 123.2 123.91" style="fill:#fff;stroke:#767676;stroke-linecap:square;stroke-linejoin:bevel;stroke-width:0.5px"/><polygon points="111.32 123.63 111.32 123.91 111.25 124.16 111.11 124.24 111.03 124.04 111.19 123.94 111.32 123.63" style="fill:#fff;stroke:#767676;stroke-linecap:square;stroke-linejoin:bevel;stroke-width:0.5px"/><polygon points="111.67 123.49 111.84 123.53 111.93 123.66 111.81 123.86 111.68 123.93 111.55 123.86 111.67 123.49" style="fill:#fff;stroke:#767676;stroke-linecap:square;stroke-linejoin:bevel;stroke-width:0.5px"/><polygon points="123.37 132.39 123.43 132.65 123.21 132.56 123.17 132.45 123.37 132.39" style="fill:#fff;stroke:#767676;stroke-linecap:square;stroke-linejoin:bevel;stroke-width:0.5px"/><polygon points="98.28 95.38 98.42 95.54 98.6 95.5 98.81 95.64 98.99 95.54 99.12 95.56 99.32 95.76 99.47 95.76 99.81 96 100 95.96 100.06 96.15 100.28 96.13 100.33 95.94 100.45 95.8 100.69 95.69 100.88 95.69 101.17 95.84 101.38 95.75 101.82 95.79 101.97 95.83 102 96.02 102.14 95.94 102.53 96.15 102.55 96.53 102.83 96.72 103.07 96.7 103.05 96.83 102.93 96.96 102.95 97.24 103.06 97.37 103.04 97.52 103.12 97.7 103.27 97.73 103.36 98.02 103.34 98.14 103.5 98.27 103.44 98.4 103.52 98.52 103.89 98.62 103.83 98.42 104.06 98.35 104.05 98.14 104.13 97.89 104.29 97.74 104.67 97.95 104.72 98.15 104.87 98.05 105.02 98.15 105.12 98.11 105.26 98.22 105.69 98.26 105.99 98.46 106.13 98.63 106.23 98.61 106.35 98.72 106.37 98.94 106.28 99.1 106.25 99.49 106.31 99.56 106.34 99.97 106.49 100.14 106.52 100.37 106.7 100.36 106.78 100.49 107.09 100.42 107.15 100.47 107.09 100.91 107.36 101.27 107.45 101.14 107.59 101.23 107.78 101.24 108.14 101.61 108.27 101.69 108.49 101.71 108.58 101.94 108.76 101.95 108.96 102.09 109 102.25 109.16 102.44 109.33 102.5 109.52 102.79 109.61 102.72 109.89 103.01 109.85 103.09 110 103.32 110.06 103.51 110.27 103.64 110.4 103.83 110.65 104.03 111.08 104.25 111.17 104.39 111.3 104.42 111.49 104.28 111.56 104.12 111.97 104.18 111.97 104.08 111.77 103.81 111.88 103.7 111.86 103.57 111.94 103.37 112.28 103.11 112.42 103.08 112.61 103.18 112.88 103.13 113 103.23 113.21 103.27 113.73 103.03 113.88 103.03 114.06 103.27 114.31 103.48 114.71 103.69 114.82 103.82 115.03 103.67 115.27 103.71 115.43 103.92 115.57 103.82 116.15 104 116.36 103.91 116.52 104.05 116.78 103.92 116.92 103.71 117.16 103.8 117.26 103.69 117.36 103.83 117.53 103.74 117.83 104.04 117.94 103.98 118.1 104.12 118.21 104.11 118.34 104.22 118.57 104.22 118.61 104.32 118.82 104.22 118.92 104.23 119.03 104.36 119.31 103.88 119.42 104.01 119.61 104.07 119.88 104.04 119.97 104.12 120.11 103.99 120.15 103.8 120.29 103.63 120.47 103.67 120.63 103.63 120.71 103.81 120.82 103.88 121.16 103.62 121.38 103.62 121.65 103.7 121.95 103.85 122.05 103.84 122.09 104.05 122.34 104.07 122.32 104.39 122.47 104.5 122.43 104.65 122.47 105.09 122.54 105.31 122.48 105.46 122.65 105.83 122.78 105.89 122.83 106.15 122.82 106.33 123.05 106.43 123.1 106.56 123 106.87 122.83 107.06 122.7 107.3 123.02 107.34 124.71 108.22 127.02 109.39 129.16 110.45 128.91 110.63 128.55 110.65 128.39 110.62 128.34 110.8 128.13 111.25 127.93 111.32 127.81 111.42 127.56 111.52 127.5 111.62 126.86 111.68 126.22 111.66 125.86 111.68 125.76 111.56 125.4 111.72 125.02 111.72 124.85 111.8 124.51 111.8 124.31 111.76 123.54 111.79 123.24 111.83 122.73 111.97 122.64 112.04 122.31 112.15 122.2 112.11 121.75 112.15 121.73 112.02 121.39 111.95 121.18 112.1 121.42 112.28 121.29 112.44 121.19 112.44 120.76 112.78 120.52 112.81 120.53 112.98 120.89 112.88 121.19 112.55 121.36 112.46 121.5 112.5 121.56 112.39 121.73 112.35 121.78 112.21 121.98 112.28 121.49 112.55 121.15 112.8 120.67 113.22 119.12 114.81 118.53 115.48 118.31 115.39 118.19 115.6 117.96 115.58 117.73 115.63 117.48 115.79 117.01 115.78 116.79 115.88 116.68 115.68 116.4 115.82 116.3 115.75 116.13 115.97 116.26 116.25 116.38 116.35 116.41 116.51 116.59 116.71 116.64 116.6 116.91 116.47 116.98 116.15 117.12 116.26 117.08 116.53 117.15 116.73 117 116.97 117.01 117.12 117.14 117.42 116.96 117.44 116.98 117.57 116.83 117.75 116.66 117.7 116.58 117.54 116.66 117.42 116.39 117.1 116.29 116.79 116.11 116.56 115.9 116.39 115.64 116.29 115.52 116.35 115.41 116.68 115.19 116.58 115.03 116.14 114.89 115.91 114.66 115.63 114.68 115.49 114.4 115.57 114.28 115.69 114.12 115.69 113.98 115.59 113.89 115.4 113.71 115.15 113.38 114.98 113.51 114.92 113.5 114.52 113.8 114.52 113.94 114.25 113.81 114.17 113.83 114.01 113.71 113.7 113.5 113.62 113.28 113.65 113.06 113.77 112.9 113.77 112.8 113.92 112.77 114.35 112.84 114.49 112.48 114.4 112.22 114.58 112.12 114.79 111.77 114.88 111.64 114.87 111.59 114.7 111.15 114.24 111.49 114.31 111.77 114.22 111.96 114.11 111.98 113.98 112.13 113.78 112.12 113.68 112.44 113.3 112.46 113.06 112.38 112.77 112.26 112.62 112.1 112.57 111.99 112.33 111.93 112.02 111.76 111.94 111.38 112.13 111.33 112.33 111.12 112.41 110.84 112.66 110.64 112.68 110.38 112.86 110.27 113.01 109.94 112.99 109.83 113.28 110.22 113.39 110.51 113.35 110.78 113.14 110.97 113.18 111.07 113.43 110.89 113.59 110.69 113.96 110.48 113.87 110.26 113.94 110.08 113.91 109.72 114.12 109.58 114.3 109.19 114.58 109.05 114.62 108.96 114.76 108.72 114.78 108.56 114.98 108.56 115.11 108.35 115.3 108.28 115.46 108.04 115.76 107.67 115.87 107.48 115.98 107.43 116.17 107.28 116.22 107.05 116.49 106.91 116.51 106.62 116.17 106.39 116.04 106.18 116.05 106.04 116.12 105.92 116.07 105.55 115.66 105.22 115.46 104.92 115.46 104.43 115.21 104.23 115.01 103.65 114.55 103.42 114.42 103.32 114.44 102.98 114.21 102.63 114.28 102.56 114.41 102.22 114.41 101.77 114.07 101.32 113.84 100.92 113.79 100.66 113.83 100.34 114.09 100.46 114.33 100.4 114.44 100.25 114.4 100.15 114.59 100.04 114.38 99.86 114.28 99.67 114.31 99.65 114.15 99.52 113.9 99.22 113.56 98.78 113.21 98.39 112.98 98.16 112.91 98.17 110.87 98.17 108.17 98.16 106.06 98.15 103.86 98.14 103.06 98.16 102.41 98.17 101.06 98.16 99.54 98.16 97.23 98.15 95.7 98.17 95.27 98.28 95.38" style="fill:#fff;stroke:#767676;stroke-linecap:square;stroke-linejoin:bevel;stroke-width:0.5px"/><polygon points="113.07 113.91 113.31 114.05 113.61 114.03 113.76 114.22 113.47 114.31 113.37 114.47 113.24 114.53 112.98 114.43 112.98 114.26 113.07 113.91" style="fill:#fff;stroke:#767676;stroke-linecap:square;stroke-linejoin:bevel;stroke-width:0.5px"/><polygon points="112.88 114.66 113.03 114.67 113.08 114.97 112.92 114.91 112.8 115.02 112.54 114.92 112.58 114.78 112.73 114.67 112.88 114.66" style="fill:#fff;stroke:#767676;stroke-linecap:square;stroke-linejoin:bevel;stroke-width:0.5px"/><polygon points="117.23 115.87 117.53 116.06 117.36 116.2 117.18 116.13 117.1 115.92 117.23 115.87" style="fill:#fff;stroke:#767676;stroke-linecap:square;stroke-linejoin:bevel;stroke-width:0.5px"/><polygon points="34.52 28.59 34.62 28.44 34.78 28.59 34.89 28.58 34.87 28.37 34.77 28.14 34.94 27.88 35.03 27.89 35.12 28.02 35.3 27.94 35.39 27.96 35.6 27.78 35.58 27.66 35.48 27.59 35.58 27.4 35.6 27.21 35.85 27.08 35.91 26.95 36.04 26.87 36.02 26.69 36.11 26.51 36.2 26.56 36.33 26.47 36.42 26.57 36.44 26.74 36.33 26.77 36.32 27.12 36.24 27.25 36.5 27.35 36.5 27.55 36.75 27.7 36.73 27.93 36.93 28.07 36.93 28.23 36.88 28.41 37.18 28.64 37.33 28.87 37.37 29.15 37.54 29.32 37.68 29.62 37.75 29.93 37.86 29.97 37.97 30.14 38.13 30.27 38.35 30.66 38.36 30.3 38.3 30.11 38.44 30 38.44 29.86 38.52 29.46 38.41 29.18 38.37 28.87 38.47 28.73 38.63 28.78 38.64 28.89 38.78 28.91 38.98 29.06 39.05 29.24 39.33 29.49 39.44 29.48 39.21 29.22 39.12 28.75 39.36 28.76 39.21 28.59 39.45 28.39 39.41 28.3 39.1 28.43 38.99 28.31 38.88 27.97 38.6 27.73 38.5 27.58 38.27 27.52 38.17 27.53 38.48 27.1 38.21 27.1 38.07 27.19 38.05 26.97 38.12 26.88 38.41 27.01 38.44 26.73 38.13 26.64 38.19 26.54 38.42 26.57 38.69 26.68 38.68 26.44 38.77 26.34 38.64 26.24 38.48 26.19 38.43 26.27 38.31 26.19 38.38 25.97 38.32 25.87 38.32 25.72 38.45 25.68 38.62 25.7 38.87 25.6 39.09 25.76 39.11 26.05 38.93 26.03 39.19 26.26 39.35 26.29 39.39 26.39 39.28 26.45 39.33 26.68 39.43 26.53 39.45 26.32 39.72 26.47 39.73 26.35 39.58 26.19 39.67 26.11 39.59 25.93 39.97 26.09 40.24 26.11 40.42 26.22 40.41 26.29 40.59 26.61 40.68 26.59 40.92 26.62 41 26.77 41.14 26.71 41.14 26.6 41 26.54 41.16 26.35 41.19 26.44 41.36 26.58 41.51 26.57 41.9 26.59 42.38 26.51 42.19 26.35 42.13 26.37 41.77 26.29 41.46 26.39 41.21 26.38 41.17 26.29 41.21 25.96 41.13 25.92 41.28 25.74 41.34 25.59 41.33 25.37 41.44 25.36 41.48 25.53 41.58 25.69 41.74 25.52 41.83 25.5 41.83 25.14 41.8 25.09 41.93 24.8 41.9 24.69 42.06 24.55 42.13 24.58 42.23 24.44 42.22 24.3 41.99 24.32 41.77 24.59 41.64 24.93 41.45 24.83 41.45 24.59 41.21 24.57 41.22 24.39 41.16 24.16 41.19 23.94 41.3 23.86 41.29 23.54 41.36 23.25 41.45 23.18 41.97 23.29 42.1 23.2 42.14 22.89 42.29 22.8 42.18 22.66 42.13 22.44 42.3 22.42 42.58 22.55 42.63 22.63 42.65 22.56 42.84 22.71 43.09 22.86 43.14 22.98 43.24 23.03 43.31 23.16 43.46 23.12 43.58 22.72 43.56 22.64 43.33 22.54 42.97 22.74 42.82 22.55 43.01 22.26 43.12 22.22 43.23 22.3 43.44 22.09 43.41 22.02 43.23 22.16 43.09 22.19 42.81 22.37 42.83 22.19 42.69 22.08 42.79 21.91 42.95 21.84 43.17 21.93 43.23 21.82 43.34 21.86 43.36 21.69 43.31 21.55 43.32 21.42 43.49 21.36 43.53 21.47 43.45 21.55 43.51 21.68 43.68 21.6 43.66 21.75 43.75 21.94 43.84 21.96 44.01 21.85 44.24 21.8 44.21 21.96 44.36 22.01 44.57 21.96 44.52 21.71 44.58 21.56 44.52 21.43 44.34 21.46 44.16 21.36 44.08 21.44 43.98 21.33 44 21.18 44.14 21.07 44.18 21.19 44.3 21.17 44.34 21.06 44.24 20.96 43.96 20.94 43.88 20.85 43.93 20.7 43.76 20.62 43.73 20.53 43.97 20.39 43.98 20.23 44.28 20.19 44.1 20.06 44.21 19.92 44.47 19.78 44.51 19.88 44.68 19.81 44.8 19.93 44.86 19.74 44.99 19.68 45.33 19.66 45.29 19.5 45.38 19.31 45.32 19.05 45.25 18.93 45.38 18.66 45.5 18.74 45.56 18.86 45.51 19.2 45.52 19.42 45.62 19.66 45.72 19.55 45.77 19.29 45.89 19.52 46.08 19.57 46.17 19.86 46.35 20.11 46.46 20.05 46.35 19.87 46.45 19.74 46.71 19.81 46.84 19.76 46.85 19.55 46.73 19.32 46.84 19.11 46.92 19.12 46.97 18.91 46.88 18.74 46.96 18.67 47.14 18.64 47.2 18.57 47.23 18.34 47.03 18.09 46.9 18.08 46.81 18.16 46.71 18.11 46.75 17.97 46.88 17.91 46.82 17.81 46.95 17.5 47.23 17.7 47.18 17.86 47.37 17.84 47.43 17.97 47.28 18.02 47.44 18.25 47.33 18.42 47.51 18.49 47.46 18.63 47.7 18.64 47.89 18.46 47.73 18.36 47.76 18.18 47.87 18.15 47.86 17.98 48.01 17.99 48.05 17.87 48.43 17.85 48.4 17.98 48.25 18.09 48.5 18.38 48.62 18.43 48.63 18.61 48.73 18.64 48.81 18.47 48.92 18.44 48.93 18.16 49.08 18.3 49.16 18.23 49.22 18.04 49.26 17.71 49.47 17.76 49.57 17.7 49.79 17.75 49.57 17.55 49.47 17.55 49.43 17.39 49.29 17.18 49.32 17.04 49.51 16.98 49.61 17 50.04 16.93 50.09 17.03 50.41 17.23 50.38 17.4 50.52 17.68 50.62 17.74 50.7 17.52 50.8 17.66 50.92 17.58 50.95 17.46 51.09 17.52 51.18 17.65 51.31 17.61 51.32 17.47 51.69 17.74 51.7 18.05 51.92 18.08 52.08 18.27 52.41 18.48 52.61 18.81 52.75 18.92 52.81 19.02 52.84 19.21 52.98 19.27 52.95 19.44 53.14 19.48 53.18 19.59 53.37 19.7 53.33 19.84 53.4 19.94 53.58 19.98 53.66 19.91 53.86 20.16 54.02 20.24 54.1 20.37 54.19 20.41 54.17 20.66 54.22 20.85 54.08 20.87 53.95 20.96 53.95 21.41 53.84 21.77 53.82 21.99 53.88 22.13 53.84 22.36 53.88 22.47 53.78 22.55 53.64 22.51 53.53 22.68 53.6 22.74 53.79 22.61 53.88 22.83 53.76 23.18 53.55 23.31 53.33 23.39 53.2 23.52 53.21 23.65 53.45 23.5 53.63 23.27 53.78 23.25 53.91 23.08 54.14 22.94 54.3 22.91 54.35 22.71 54.36 22.52 54.09 22.48 53.97 22.35 53.95 22.2 54.01 22.11 54.22 22.28 54.53 22.64 54.52 22.46 54.4 22.36 54.45 22.05 54.37 22.03 54.23 21.81 54.36 21.45 54.53 21.35 54.61 21.41 54.75 21.64 54.86 21.57 55.12 21.63 55.14 21.48 55.31 21.56 55.45 21.26 55.38 21.19 55.36 20.96 55.21 20.88 55.05 20.89 54.98 20.78 55.3 20.65 55.41 20.74 55.41 20.85 55.57 21.03 55.67 21.08 55.8 20.99 56.08 21.12 56.22 21.14 56.37 21.31 56.54 21.33 56.76 21.56 56.88 21.52 56.93 21.68 57 21.68 57 22.86 57 24.09 57 25.82 57 27.95 57 30.13 57 32.3 57 34.08 57 36.45 57 39.87 57 43.62 57 44.5 57 47.39 57 51.2 57 52.85 57 55.56 57 58.89 57 62.78 57 64.68 57 66.71 57 70.67 57 74.8 57 78.7 57 79.98 57 81.82 57 84.3 57 85.61 56.64 85.73 56.33 85.9 55.86 86.2 55.78 86.28 55.46 86.4 55.07 86.63 54.66 86.81 54.34 86.92 53.76 87.16 53.48 87.25 52.56 87.46 52.01 87.69 51.91 87.79 51.68 87.82 51.26 87.96 50.89 88.04 50.43 88.06 49.92 88.14 49.33 88.11 49.04 88.18 48.56 88.14 48.08 88.07 47.44 87.87 47.26 87.88 47.08 88 46.55 88.09 46.25 88.3 46.12 88.34 45.7 88.65 45.47 88.87 45.08 89.19 44.69 89.35 44.51 89.37 44.26 89.46 43.71 89.78 43.59 89.88 43.33 89.94 43.27 90.03 43.05 90.16 42.9 90.35 42.38 90.64 41.82 90.75 41.38 90.79 41.03 90.9 40.64 91.13 40.38 91.42 40.24 91.62 40.12 91.94 40.08 92.13 39.91 92.52 39.78 92.96 39.73 93.39 39.58 93.53 39.42 93.56 39.37 93.73 39.13 93.89 38.98 94.09 38.97 94.41 38.63 94.62 38.52 94.75 38.38 94.78 38.25 95.01 37.77 94.83 37.65 94.83 37.37 95.17 37.24 95.27 36.98 95.25 36.93 95.05 36.81 94.85 36.66 94.73 36.42 94.68 36.27 94.81 36.03 94.81 35.79 94.89 35.56 94.76 35.45 94.82 35.18 94.8 35 94.85 34.92 94.94 34.69 95.08 34.5 94.95 34.23 94.9 34.01 95 33.85 95.14 33.8 95.3 33.59 95.35 33.39 95.32 33.2 94.83 33.03 94.62 32.71 94.57 32.43 94.81 32.19 94.89 31.89 94.69 31.72 94.81 31.41 94.56 31.24 94.59 31.1 94.53 30.69 94.5 30.4 94.64 30.22 94.61 30.08 94.71 29.79 94.64 29.5 94.73 29.02 94.67 28.84 94.8 28.48 94.82 28.11 94.79 27.96 94.96 27.55 95.16 27.14 95.03 26.84 94.99 26.63 95.01 26.46 95.07 26.2 94.95 26.02 95 25.86 95.19 25.55 95.15 25.39 95.23 25.3 95.39 25.13 95.54 24.8 95.69 24.68 95.83 24.63 96.01 24.48 96.16 24.33 96.51 24.35 96.79 24.45 96.89 24.34 97.03 24.27 96.87 24.12 96.83 23.96 96.94 23.99 97.2 23.6 97.2 23.54 97.26 23.57 97.5 23.23 97.34 22.94 97.24 22.57 97.19 22.29 97.26 22.27 97.41 21.95 97.45 21.78 97.58 21.71 97.72 21.76 97.92 21.66 98.07 21.07 98.29 20.82 98.4 20.63 98.58 20.53 98.89 20.5 99.14 20.29 99.11 20.08 99.15 19.78 99.28 19.75 99.53 19.52 99.48 19.3 99.63 19.1 99.5 18.98 99.53 18.84 99.71 18.78 99.87 19.09 99.97 19.01 100.07 18.71 100.01 18.66 99.94 18.31 99.76 18.05 99.73 17.95 99.8 17.89 100.09 17.54 99.86 17.4 99.89 16.98 99.63 17.09 99.54 17.21 99.64 17.38 99.54 17.3 99.4 17.18 99.48 17.01 99.41 16.9 99.5 16.85 99.73 16.64 99.63 16.37 99.62 16.23 99.78 16.02 99.67 15.8 99.69 15.57 99.63 15.46 99.82 14.96 99.61 14.78 99.5 14.73 99.67 14.45 99.74 14.12 99.56 13.93 99.55 13.59 99.27 13.1 98.98 12.75 98.87 12.4 98.84 12.3 98.72 12.1 98.33 11.85 98.03 11.38 97.55 10.87 97.09 10.52 96.91 10.37 96.78 10.12 96.65 9.76 96.58 9.43 96.64 9.32 96.85 9.01 96.44 8.94 96.22 8.99 96.13 8.92 95.87 8.82 95.71 8.86 95.34 8.77 94.71 8.83 94.63 8.84 94.39 8.78 94.05 8.95 93.73 8.87 93.29 9.05 93.36 9.32 93.71 9.65 93.82 9.91 93.81 10.15 93.74 10.32 93.62 10.83 92.97 10.9 92.83 11.03 92.4 11.21 92.41 11.3 92.27 11.2 92.15 11.22 91.56 11.16 91 11.1 90.62 11.03 90.37 10.95 89.66 11.06 89.43 11.16 89.92 11.24 90.1 11.35 90.06 11.21 89.72 11.36 89.53 11.51 89.53 11.53 89.36 11.34 89.22 11.33 89.07 11.42 88.83 11.41 88.59 11.32 88.43 11.41 88.35 11.37 88.19 11.52 87.65 11.42 87.15 11.45 86.45 11.43 86.22 11.35 86.09 11.37 85.97 11.21 85.47 11.03 85.09 10.86 84.84 10.7 84.45 10.37 83.9 10.22 83.52 10.16 83.27 9.99 82.9 9.93 82.68 9.6 82.09 9.51 82.03 9.5 81.89 9.38 81.63 9.21 81.11 9.16 80.89 9.05 80.75 9.09 80.63 9.02 80.41 8.98 80.05 9 79.81 8.95 79.67 8.85 79.63 8.87 79.35 8.8 79.03 8.73 79 8.72 78.59 8.78 78.47 8.79 78.07 8.73 77.92 8.71 77.44 8.77 76.91 8.84 76.73 8.83 76.59 8.7 76.25 8.71 76.14 8.6 75.92 8.58 75.68 8.41 75.14 8.21 74.85 7.78 74.4 7.59 74.16 7.5 73.76 7.54 73.53 7.46 73.11 7.33 72.8 7.07 72.41 6.9 72.24 6.79 71.98 6.64 71.8 6.52 71.59 6.23 71.4 6.02 71.12 5.89 70.5 5.77 70.07 5.82 69.81 5.98 69.51 5.93 69.26 5.76 68.68 5.51 68.08 5.27 67.58 4.83 66.76 4.67 66.43 4.01 65.47 3.85 65.25 3.1 64.48 2.99 64.35 3 64.14 2.92 63.93 2.79 63.71 2.58 63.48 2.87 63.52 3.08 63.28 3.07 63.71 3.2 63.78 3.29 63.56 3.3 63.22 3.44 63.32 3.51 63.45 3.51 63.61 3.62 63.84 3.62 63.99 3.73 64.1 3.85 63.96 3.9 64.16 3.91 64.71 3.9 65.03 4 65.08 4.03 64.83 4.14 64.9 4.26 65.29 4.4 65.16 4.51 65.19 4.6 65.08 4.76 65.05 4.94 64.89 5.03 64.68 4.97 64.35 5 64.09 4.81 63.84 4.6 63.71 4.39 63.65 4.32 63.48 4.08 63.16 3.98 63.15 3.92 62.95 3.9 62.57 3.75 62.46 3.74 62.2 3.57 62.05 3.62 61.86 3.49 61.83 3.4 61.7 3.46 61.3 3.6 61.05 3.75 60.88 3.75 61.11 3.83 61.32 4 61.39 4.07 61.68 4.23 61.79 4.35 61.96 4.45 61.98 4.45 62.21 4.59 62.3 4.51 62.52 4.48 62.84 4.4 62.94 4.39 63.3 4.54 63.57 4.69 63.6 4.82 63.41 5.04 62.96 4.94 62.59 5.11 62.7 5.05 62.93 5.1 62.99 5.12 63.27 5.24 63.34 5.18 63.52 5.27 63.73 5.33 64.14 5.74 64.56 6.12 64.25 6.23 64 6.23 63.89 6.11 63.74 6.07 63.44 6.3 63.42 6.22 63.22 6.22 63.05 6.13 62.9 6.08 62.7 6.29 62.7 6.26 62.49 6.32 62.37 6.2 62.29 5.87 61.91 5.78 61.67 5.57 61.51 5.5 61.41 5.54 61.29 5.39 60.96 5.19 60.73 5.08 60.49 5.04 60.22 4.95 60.06 4.85 59.71 4.78 59.56 4.54 59.4 4.36 59.21 4.26 59 4.25 58.77 4.31 58.6 4.12 58.41 4.1 58.28 4.16 58.06 4.13 57.93 3.76 57.41 3.66 57.24 3.5 57.1 3.37 56.9 3.35 56.6 3.37 56.16 3.32 55.89 3.5 55.72 3.49 55.54 3.41 55.38 3.44 55.16 3.55 55.09 3.59 54.9 3.59 54.64 3.74 54.44 3.77 54.24 3.91 54.1 4.08 53.62 4.21 53.49 4.39 53.39 4.6 53.16 4.66 52.84 4.7 52.3 4.6 51.88 4.63 51.69 4.78 51.5 4.82 51.35 4.81 51.02 4.63 50.4 4.52 50.2 4.41 50.11 4.27 49.77 4.26 49.48 4.42 49.38 4.54 49.09 4.55 48.95 4.66 48.82 4.79 48.58 4.93 48.05 5.18 47.29 5.29 47.16 5.41 46.91 5.69 46.7 5.87 46.66 5.96 46.58 6.07 46.69 5.92 46.89 5.89 47.23 5.69 47.99 5.7 48.12 5.81 48.26 5.93 48.54 6.02 48.55 6.02 48.74 5.83 48.99 5.83 49.17 5.95 49.38 6.16 49.28 6.19 49.18 6.38 49.04 6.51 49.07 6.51 49.24 6.65 49.28 6.76 49.13 6.75 48.91 6.89 48.43 7.01 48.32 6.97 48.18 7.09 48.17 7.2 47.86 7.24 47.62 7.13 47.44 7.51 47.34 7.53 47.2 7.61 47.09 7.63 46.83 7.89 46.64 8.06 46.62 8.3 46.46 8.55 46.23 8.74 46.16 8.93 46.21 9.03 46.19 9.22 46 9.34 46.05 9.55 45.87 9.81 45.86 9.96 45.82 10.44 45.48 10.54 45.5 10.6 45.32 10.87 45.06 11.1 44.8 11.18 44.8 11.27 44.67 11.41 44.66 11.45 44.57 11.69 44.53 11.88 44.08 12.02 43.91 12.21 43.79 12.64 43.6 12.77 43.59 12.93 43.44 12.99 42.99 13.11 43.09 13.32 43.16 13.54 43.03 13.89 42.95 14.07 42.78 14.11 42.69 14.32 42.64 14.62 42.77 14.77 42.71 14.88 42.53 14.75 42.46 14.72 42.32 14.88 42.25 14.94 42.07 15.03 42.02 15.07 41.85 15.27 41.82 15.11 42.04 15.02 42.35 15.14 42.52 15.38 42.58 15.56 42.49 15.69 42.33 15.88 42.35 16.06 42.22 16.16 42.31 16.25 42.17 16.33 42.13 16.42 42.23 16.34 42.31 16.37 42.42 16.67 42.57 16.99 42.67 17.1 42.6 17.24 42.61 17.61 42.53 17.9 42.36 18.11 42.44 18.27 42.41 18.46 42.31 18.64 42.17 18.76 41.94 18.93 41.84 18.96 41.67 19.13 41.64 19.79 41.12 19.87 41.25 20.3 41.14 20.38 41.2 20.64 41.13 20.78 41.16 21.11 40.97 21.16 41.02 21.36 40.98 21.53 41.05 21.82 40.91 21.97 40.92 22.26 40.49 22.5 40.3 22.59 40.01 22.84 39.93 22.98 39.71 23.19 39.86 23.21 39.71 23.36 39.69 23.51 39.76 23.93 39.86 24.07 39.86 24.24 39.91 24.42 40.07 24.57 40.13 24.86 40.02 24.94 39.88 25.04 39.96 25.16 39.91 25.24 39.7 25.37 39.76 25.62 39.72 25.96 39.61 26.13 39.62 26.49 39.54 26.72 39.54 27.12 39.43 28 39.07 28.21 39.02 28.68 38.79 29.3 38.52 29.43 38.45 30 38.06 30.25 37.84 30.57 37.49 30.95 36.96 31.2 36.58 31.29 36.3 31.49 35.95 31.71 35.38 31.71 35.22 31.62 35.18 31.61 35.05 31.79 35.09 32.02 35.01 32.2 34.84 32.19 34.69 32.05 34.55 32.14 34.43 32.21 34.22 32.3 34.09 32.45 34.17 32.61 34.15 32.99 33.88 33.14 33.64 33.39 33.57 33.55 33.33 33.71 33.16 34.01 33.08 34.2 32.87 34.21 32.41 34.14 32.34 33.97 32.34 33.8 32.27 33.6 32.44 33.54 32.35 33.64 32.21 33.66 31.99 33.62 31.6 33.62 31.28 33.54 31 33.45 30.88 33.41 30.55 33.45 30.51 33.44 30.06 33.48 30.02 33.52 29.71 33.62 29.65 33.72 29.42 33.83 29.34 33.81 29.14 33.98 28.97 34.12 28.91 34.19 28.74 34.4 28.59 34.52 28.59" style="fill:#fff;stroke:#767676;stroke-linecap:square;stroke-linejoin:bevel;stroke-width:0.5px"/><polygon points="1.87 60.75 2.01 60.89 2.01 61.07 2.1 61.29 2.24 61.87 2.31 61.95 2.45 62.67 2.65 62.79 2.79 63.14 2.76 63.35 2.59 63.23 2.5 62.98 2.33 62.72 2.14 62.51 2.06 62.24 1.88 61.97 1.9 61.8 1.73 61.39 1.7 61.19 1.72 60.93 1.87 60.75" style="fill:#fff;stroke:#767676;stroke-linecap:square;stroke-linejoin:bevel;stroke-width:0.5px"/><polygon points="10.36 42.36 10.47 42.42 10.47 42.77 10.39 42.98 10.31 43.01 10.21 43.19 10.11 43.13 9.91 43.12 9.97 42.88 10.14 42.67 10.36 42.36" style="fill:#fff;stroke:#767676;stroke-linecap:square;stroke-linejoin:bevel;stroke-width:0.5px"/><polygon points="41.77 22.34 41.72 22.59 41.83 22.6 41.94 22.76 41.96 22.88 41.75 23.06 41.57 23.04 41.55 22.89 41.46 22.8 41.46 22.65 41.54 22.47 41.77 22.34" style="fill:#fff;stroke:#767676;stroke-linecap:square;stroke-linejoin:bevel;stroke-width:0.5px"/><polygon points="43.83 19.43 43.98 19.59 43.92 19.81 43.95 19.96 43.71 20.13 43.58 20.1 43.58 19.8 43.73 19.81 43.66 19.61 43.83 19.43" style="fill:#fff;stroke:#767676;stroke-linecap:square;stroke-linejoin:bevel;stroke-width:0.5px"/><polygon points="54 21.59 54.06 21.63 54.12 21.83 54.26 21.96 54.24 22.15 54 22.01 53.96 21.89 54 21.59" style="fill:#fff;stroke:#767676;stroke-linecap:square;stroke-linejoin:bevel;stroke-width:0.5px"/><polygon points="41.34 22.38 41.4 22.54 41.16 22.64 41.04 22.63 41.01 22.52 41.34 22.38" style="fill:#fff;stroke:#767676;stroke-linecap:square;stroke-linejoin:bevel;stroke-width:0.5px"/><polygon points="43.82 21.54 43.86 21.61 44.03 21.68 43.92 21.88 43.76 21.65 43.82 21.54" style="fill:#fff;stroke:#767676;stroke-linecap:square;stroke-linejoin:bevel;stroke-width:0.5px"/><polygon points="5.01 62.01 5.09 62.07 5.14 62.33 4.92 62.26 4.92 62.03 5.01 62.01" style="fill:#fff;stroke:#767676;stroke-linecap:square;stroke-linejoin:bevel;stroke-width:0.5px"/><polygon points="42.61 22.26 42.76 22.38 42.59 22.56 42.52 22.49 42.53 22.38 42.61 22.26" style="fill:#fff;stroke:#767676;stroke-linecap:square;stroke-linejoin:bevel;stroke-width:0.5px"/><polygon points="15.33 41.5 15.27 41.72 15.1 41.8 15.23 41.53 15.33 41.5" style="fill:#fff;stroke:#767676;stroke-linecap:square;stroke-linejoin:bevel;stroke-width:0.5px"/><polygon points="54.81 21.02 54.94 21.21 54.96 21.36 54.8 21.36 54.81 21.02" style="fill:#fff;stroke:#767676;stroke-linecap:square;stroke-linejoin:bevel;stroke-width:0.5px"/><polygon points="42.96 21.16 43.06 21.31 43.06 21.53 42.94 21.52 42.98 21.32 42.96 21.16" style="fill:#fff;stroke:#767676;stroke-linecap:square;stroke-linejoin:bevel;stroke-width:0.5px"/><polygon points="2.38 58.85 2.41 59.12 2.27 59.18 2.38 58.85" style="fill:#fff;stroke:#767676;stroke-linecap:square;stroke-linejoin:bevel;stroke-width:0.5px"/><polygon points="38.81 25.48 39.04 25.55 38.98 25.65 38.81 25.48" style="fill:#fff;stroke:#767676;stroke-linecap:square;stroke-linejoin:bevel;stroke-width:0.5px"/><polygon points="37.95 25.86 38.02 25.87 38.11 26.06 38.03 26.1 37.95 25.86" style="fill:#fff;stroke:#767676;stroke-linecap:square;stroke-linejoin:bevel;stroke-width:0.5px"/><polygon points="14.61 41.94 14.46 42.15 14.43 42.02 14.61 41.94" style="fill:#fff;stroke:#767676;stroke-linecap:square;stroke-linejoin:bevel;stroke-width:0.5px"/><polygon points="126.23 100.09 126.44 100.26 126.44 100.38 126.75 100.71 127.16 100.95 126.95 101.01 126.64 100.97 126.49 101.04 126.3 101.33 126.26 101.5 126.31 101.73 126.25 101.94 126.28 102.09 126.06 102.07 126.12 102.46 126.17 102.55 126.1 102.85 126.14 103.06 125.96 103.52 125.83 103.43 125.65 103.39 125.49 103.24 125.4 102.65 125.22 102.74 125.06 102.55 125.1 102.42 125 102.15 124.97 101.68 125.05 101.31 125.13 101.19 125.08 101 125.14 100.87 126.21 100.08 126.23 100.09" style="fill:none;stroke:#000;stroke-linecap:square;stroke-linejoin:bevel;stroke-width:0.5px"/><path d="M126.23,100.09h0l-1.07.79-.06.14,0,.18-.08.12-.08.37,0,.47.1.27,0,.13.16.19.18-.09.09.59.16.15.18,0,.13.09.18-.46,0-.21.07-.3,0-.09-.06-.39.22,0,0-.15.07-.21,0-.23,0-.17.19-.29.15-.07.31,0,.21-.06-.41-.24-.3-.33v-.12Zm15.21-28.74.08.12,0,.22,0,.3,0,.13-.08.37v.26l.06.27.08.14.11.07,0,.25-.08.3,0,.26-.06.12-.24.29-.19.29L141,75l.05.25-.13.15-.23.47V76l.09.11,0,.67-.07.14-.05.52-.09.17,0,.17-.13.36,0,.13-.06.2-.2.35v.5l-.11.15-.1.27V80l-.2.35,0,.13-.14.23-.08.37,0,.28-.09.19,0,.6,0,.1.23.09.09.16-.09.11-.08.24,0,.27-.19.24-.1.31V84l0,.06-.14.2-.07.23.09.2-.23.26-.11.21,0,.26-.14.23v.12l-.2.29,0,.2-.32.28L138,87v.18l-.13.2v.21h-.14l-.09.15.13.12-.1.15.1.06.16-.09-.07-.22,0-.11.21.1-.15.26,0,.14.08.11-.09.24,0,.19-.3.13-.4.25-.15.25-.3.21-.05.14-.2,0-.23.09v-.15l-.37.1.08.12.27.15.19-.1h.23V90l-.21.19h-.16l-.27.06-.29.12-.4.23-.08.09,0,.14-.18.17,0,.12-.13.1h-.2l-.2.18-.15,0v.29l.17-.12.22,0-.06.24-.19.2-.22,0,0,.16-.26.19,0,.15.12.1,0,.14-.14.16v.19l-.13.19h-.53l-.09.11.1.17.27.17-.13.33,0,.21-.15.31-.18.07.27.14-.1.14,0,.2-.1.13-.11-.16h-.16l-.07.19.32.1-.26.11,0,.15-.2.26-.24.16-.17.18-.24.41v.18l-.06.11,0,.28-.08.14-.21.06.07.21.12,0,0,.2,0,.32-.1.29-.22.21-.06.18v.43l.29.4v.14l-.1.09-.1-.17,0-.07-.11-.21-.1,0-.19.17.14.38h-.4l-.19.14,0,.16-.17.15v.34l-.29.41,0,.37-.25.37-.11.33-.34,0,.18.3,0,.25h-.15l-.1.22,0,.56-.12.55.09.54,0,.17-.31.36.1.21-.08.24.05.28-.3.66,0,.11-.08.26-.07,0-.06.41-.08,0,.12.61-.23.19.1.13.13-.06.22.21.11.44h-.23l-.09.15.09.12-.07.28.1.37v.21L127,109.39l-2.31-1.18-1.69-.87-.32,0,.13-.24.17-.19.1-.31-.06-.13-.22-.09v-.19l0-.26-.13-.06-.17-.37.06-.15-.07-.22,0-.44,0-.15-.15-.11,0-.32-.25,0,0-.21H122l-.3-.14-.27-.09h-.22l-.34.26-.11-.07-.08-.18-.16,0-.18,0-.14.17,0,.19-.14.13-.09-.08-.27,0-.19-.06-.11-.13-.28.48-.11-.13h-.1l-.21.1,0-.1h-.23l-.13-.11h-.11l-.16-.14-.11.06-.29-.3-.18.09-.1-.14-.1.11-.24-.09-.14.21-.26.13-.16-.14-.21.08-.58-.17-.14.1-.16-.21-.24,0-.21.15-.11-.13-.4-.21-.25-.21-.18-.24h-.15l-.52.23-.21,0-.12-.1-.27.05-.19-.09-.14,0-.34.25-.08.2,0,.13-.11.11.2.27v.1l-.41-.06-.07.16-.19.14-.13,0-.08-.14-.44-.22-.25-.19-.13-.2-.21-.13-.06-.19-.15-.23,0-.08-.28-.29-.09.07-.19-.29-.17-.06-.16-.2,0-.15-.2-.14h-.18l-.09-.23-.22,0-.13-.08-.36-.37h-.19l-.14-.09-.09.13-.27-.36.06-.44-.06,0-.31.07-.08-.13h-.19l0-.23-.15-.17,0-.41-.06-.07,0-.39.09-.16,0-.22-.12-.12-.1,0-.14-.17-.3-.2-.43,0-.14-.11-.1,0-.15-.1-.15.1,0-.2-.38-.21-.16.15-.08.25v.21l-.23.07.06.2-.37-.1-.08-.12.06-.13-.16-.13,0-.12-.09-.29-.15,0-.08-.19,0-.14-.11-.13,0-.28.12-.13,0-.13-.25,0-.27-.19v-.38l-.4-.21L102,96l0-.19-.15,0-.44,0-.2.09-.3-.15h-.18l-.25.11-.12.14,0,.19-.22,0L100,96l-.19,0-.34-.23h-.15l-.2-.2-.13,0-.18.1-.21-.14-.18,0-.14-.16V74.66h27.38l.29-.25,0-.23.14-.19h.1l.19-.14,0-.08.36-.27.22-.11.12,0,.12-.16,0-.15.2-.14.25,0,.25.12.11.13.2-.06.49-.06.23.06.26-.15h.21l.29-.11.14.07.3-.14.21.15.07.18.24.17.15,0,.17.06.16-.07.18.08.41-.17.23.1.18.14.11,0,.15.18.21,0,.12.24,0,.2L133,74l.4.2.28.25,0,.16,0,.27,0,.17.13.16.07.17h.2l.32-.36,0-.22.17-.32.32-.12.3-.22.08.19.09.09.21.08,0-.18h.19l.1.06.34-.15.05-.13v-.4l.13-.2-.13-.17h-.08l-.08-.16,0-.18-.1-.07v-.17l.21,0,.22-.22.15,0,.14-.12.19.07.17-.24.14-.11.27,0,.26-.43.17,0,.09.06,0,.16.18.13.15-.18.06.07.29.13.09.08.15,0L139,72l.15,0,.21.09h.36l.2.08.14-.21.09,0,.07-.18.15.07.15-.12.28.06.44-.37Z" style="fill:#eaeaea;stroke:#000;stroke-linecap:square;stroke-linejoin:bevel;stroke-width:0.75px"/><polygon points="98.28 95.38 98.42 95.54 98.6 95.5 98.81 95.64 98.99 95.54 99.12 95.56 99.32 95.76 99.47 95.76 99.81 96 100 95.96 100.06 96.15 100.28 96.13 100.33 95.94 100.45 95.8 100.69 95.69 100.88 95.69 101.17 95.84 101.38 95.75 101.82 95.79 101.97 95.83 102 96.02 102.14 95.94 102.53 96.15 102.55 96.53 102.83 96.72 103.07 96.7 103.05 96.83 102.93 96.96 102.95 97.24 103.06 97.37 103.04 97.52 103.12 97.7 103.27 97.73 103.36 98.02 103.34 98.14 103.5 98.27 103.44 98.4 103.52 98.52 103.89 98.62 103.83 98.42 104.06 98.35 104.05 98.14 104.13 97.89 104.29 97.74 104.67 97.95 104.72 98.15 104.87 98.05 105.02 98.15 105.12 98.11 105.26 98.22 105.69 98.26 105.99 98.46 106.13 98.63 106.23 98.61 106.35 98.72 106.37 98.94 106.28 99.1 106.25 99.49 106.31 99.56 106.34 99.97 106.49 100.14 106.52 100.37 106.7 100.36 106.78 100.49 107.09 100.42 107.15 100.47 107.09 100.91 107.36 101.27 107.45 101.14 107.59 101.23 107.78 101.24 108.14 101.61 108.27 101.69 108.49 101.71 108.58 101.94 108.76 101.95 108.96 102.09 109 102.25 109.16 102.44 109.33 102.5 109.52 102.79 109.61 102.72 109.89 103.01 109.85 103.09 110 103.32 110.06 103.51 110.27 103.64 110.4 103.83 110.65 104.03 111.08 104.25 111.17 104.39 111.3 104.42 111.49 104.28 111.56 104.12 111.97 104.18 111.97 104.08 111.77 103.81 111.88 103.7 111.86 103.57 111.94 103.37 112.28 103.11 112.42 103.08 112.61 103.18 112.88 103.13 113 103.23 113.21 103.27 113.73 103.03 113.88 103.03 114.06 103.27 114.31 103.48 114.71 103.69 114.82 103.82 115.03 103.67 115.27 103.71 115.43 103.92 115.57 103.82 116.15 104 116.36 103.91 116.52 104.05 116.78 103.92 116.92 103.71 117.16 103.8 117.26 103.69 117.36 103.83 117.53 103.74 117.83 104.04 117.94 103.98 118.1 104.12 118.21 104.11 118.34 104.22 118.57 104.22 118.61 104.32 118.82 104.22 118.92 104.23 119.03 104.36 119.31 103.88 119.42 104.01 119.61 104.07 119.88 104.04 119.97 104.12 120.11 103.99 120.15 103.8 120.29 103.63 120.47 103.67 120.63 103.63 120.71 103.81 120.82 103.88 121.16 103.62 121.38 103.62 121.65 103.7 121.95 103.85 122.05 103.84 122.09 104.05 122.34 104.07 122.32 104.39 122.47 104.5 122.43 104.65 122.47 105.09 122.54 105.31 122.48 105.46 122.65 105.83 122.78 105.89 122.83 106.15 122.82 106.33 123.05 106.43 123.1 106.56 123 106.87 122.83 107.06 122.7 107.3 123.02 107.34 124.71 108.22 127.02 109.39 129.16 110.45 128.91 110.63 128.55 110.65 128.39 110.62 128.34 110.8 128.13 111.25 127.93 111.32 127.81 111.42 127.56 111.52 127.5 111.62 126.86 111.68 126.22 111.66 125.86 111.68 125.76 111.56 125.4 111.72 125.02 111.72 124.85 111.8 124.51 111.8 124.31 111.76 123.54 111.79 123.24 111.83 122.73 111.97 122.64 112.04 122.31 112.15 122.2 112.11 121.75 112.15 121.73 112.02 121.39 111.95 121.18 112.1 121.42 112.28 121.29 112.44 121.19 112.44 120.76 112.78 120.52 112.81 120.53 112.98 120.89 112.88 121.19 112.55 121.36 112.46 121.5 112.5 121.56 112.39 121.73 112.35 121.78 112.21 121.98 112.28 121.49 112.55 121.15 112.8 120.67 113.22 119.12 114.81 118.53 115.48 118.31 115.39 118.19 115.6 117.96 115.58 117.73 115.63 117.48 115.79 117.01 115.78 116.79 115.88 116.68 115.68 116.4 115.82 116.3 115.75 116.13 115.97 116.26 116.25 116.38 116.35 116.41 116.51 116.59 116.71 116.64 116.6 116.91 116.47 116.98 116.15 117.12 116.26 117.08 116.53 117.15 116.73 117 116.97 117.01 117.12 117.14 117.42 116.96 117.44 116.98 117.57 116.83 117.75 116.66 117.7 116.58 117.54 116.66 117.42 116.39 117.1 116.29 116.79 116.11 116.56 115.9 116.39 115.64 116.29 115.52 116.35 115.41 116.68 115.19 116.58 115.03 116.14 114.89 115.91 114.66 115.63 114.68 115.49 114.4 115.57 114.28 115.69 114.12 115.69 113.98 115.59 113.89 115.4 113.71 115.15 113.38 114.98 113.51 114.92 113.5 114.52 113.8 114.52 113.94 114.25 113.81 114.17 113.83 114.01 113.71 113.7 113.5 113.62 113.28 113.65 113.06 113.77 112.9 113.77 112.8 113.92 112.77 114.35 112.84 114.49 112.48 114.4 112.22 114.58 112.12 114.79 111.77 114.88 111.64 114.87 111.59 114.7 111.15 114.24 111.49 114.31 111.77 114.22 111.96 114.11 111.98 113.98 112.13 113.78 112.12 113.68 112.44 113.3 112.46 113.06 112.38 112.77 112.26 112.62 112.1 112.57 111.99 112.33 111.93 112.02 111.76 111.94 111.38 112.13 111.33 112.33 111.12 112.41 110.84 112.66 110.64 112.68 110.38 112.86 110.27 113.01 109.94 112.99 109.83 113.28 110.22 113.39 110.51 113.35 110.78 113.14 110.97 113.18 111.07 113.43 110.89 113.59 110.69 113.96 110.48 113.87 110.26 113.94 110.08 113.91 109.72 114.12 109.58 114.3 109.19 114.58 109.05 114.62 108.96 114.76 108.72 114.78 108.56 114.98 108.56 115.11 108.35 115.3 108.28 115.46 108.04 115.76 107.67 115.87 107.48 115.98 107.43 116.17 107.28 116.22 107.05 116.49 106.91 116.51 106.62 116.17 106.39 116.04 106.18 116.05 106.04 116.12 105.92 116.07 105.55 115.66 105.22 115.46 104.92 115.46 104.43 115.21 104.23 115.01 103.65 114.55 103.42 114.42 103.32 114.44 102.98 114.21 102.63 114.28 102.56 114.41 102.22 114.41 101.77 114.07 101.32 113.84 100.92 113.79 100.66 113.83 100.34 114.09 100.46 114.33 100.4 114.44 100.25 114.4 100.15 114.59 100.04 114.38 99.86 114.28 99.67 114.31 99.65 114.15 99.52 113.9 99.22 113.56 98.78 113.21 98.39 112.98 98.16 112.91 98.17 110.87 98.17 108.17 98.16 106.06 98.15 103.86 98.14 103.06 98.16 102.41 98.17 101.06 98.16 99.54 98.16 97.23 98.15 95.7 98.17 95.27 98.28 95.38" style="fill:#eaeaea;stroke:#000;stroke-linecap:square;stroke-linejoin:bevel;stroke-width:0.75px"/><polygon points="113.07 113.91 113.31 114.05 113.61 114.03 113.76 114.22 113.47 114.31 113.37 114.47 113.24 114.53 112.98 114.43 112.98 114.26 113.07 113.91" style="fill:none;stroke:#000;stroke-linecap:square;stroke-linejoin:bevel;stroke-width:0.5px"/><polygon points="112.88 114.66 113.03 114.67 113.08 114.97 112.92 114.91 112.8 115.02 112.54 114.92 112.58 114.78 112.73 114.67 112.88 114.66" style="fill:none;stroke:#000;stroke-linecap:square;stroke-linejoin:bevel;stroke-width:0.5px"/><path d="M52,45.52h1.27l3.5,10.1H55.41l-1-2.84H50.64l-1,2.84H48.44Zm-1,6.14h3l-.72-2.12c-.38-1.1-.77-2.83-.77-2.83h0s-.42,1.73-.8,2.83Z"/><path d="M58.11,53.56V48.14h1.26v5.23c0,.91.3,1.29,1.36,1.29a4,4,0,0,0,1.91-.54v-6h1.27v7.48H62.83L62.71,55h-.09a3.9,3.9,0,0,1-2.27.78A2,2,0,0,1,58.11,53.56Z"/><path d="M65.59,55.23v-1a5.13,5.13,0,0,0,2.21.46c1.09,0,1.57-.38,1.57-1s-.32-.94-1.22-1.18l-.7-.18c-1.06-.28-1.83-.79-1.83-2.09s.81-2.2,2.57-2.2a4.25,4.25,0,0,1,2,.44v1a5.14,5.14,0,0,0-1.95-.39c-1,0-1.44.34-1.44,1s.32.86,1.07,1.06l.7.18c1.44.38,2,.88,2,2.2s-1,2.23-2.65,2.23A4.85,4.85,0,0,1,65.59,55.23Z"/><path d="M72.62,53.87V49.21H71.36V48.14h1.26V46.38h1.27v1.76H76v1.07H73.89v4.48c0,.71.3,1,1.12,1a4.34,4.34,0,0,0,1.08-.16v.86a2.87,2.87,0,0,1-1.4.35C73.51,55.71,72.62,55.2,72.62,53.87Z"/><path d="M77.52,48.14h1.2V49h.07a3,3,0,0,1,2.09-1,2,2,0,0,1,.46,0v1.15a3,3,0,0,0-.56,0,3.88,3.88,0,0,0-2,.63v5.78H77.52Z"/><path d="M82.05,53.65c0-1.31.8-2,2.23-2.17l2-.23v-.73c0-1.13-.49-1.41-1.81-1.41a7.27,7.27,0,0,0-1.75.22v-.92A5.72,5.72,0,0,1,84.92,48c1.64,0,2.57.7,2.57,2.2v5.42h-1L86.34,55h-.09a2.34,2.34,0,0,1-1.91.77A2,2,0,0,1,82.05,53.65Zm4.18.61V52.2l-1.63.17c-.81.09-1.24.42-1.24,1.23s.51,1.18,1.3,1.18A2.42,2.42,0,0,0,86.23,54.26Z"/><path d="M89.58,53.93V44.85h1.28v8.92c0,.72.25.89.76.89a4,4,0,0,0,.85-.12v.9a2.44,2.44,0,0,1-1.19.27C90.26,55.71,89.58,55.26,89.58,53.93Z"/><path d="M93.74,45.34h1.35v1.32H93.74Zm.05,2.8h1.26v7.48H93.79Z"/><path d="M96.71,53.65c0-1.31.8-2,2.23-2.17l1.94-.23v-.73c0-1.13-.49-1.41-1.8-1.41a7.13,7.13,0,0,0-1.75.22v-.92A5.69,5.69,0,0,1,99.58,48c1.64,0,2.56.7,2.56,2.2v5.42h-1L101,55h-.09a2.37,2.37,0,0,1-1.92.77A2,2,0,0,1,96.71,53.65Zm4.17.61V52.2l-1.62.17c-.81.09-1.25.42-1.25,1.23s.52,1.18,1.31,1.18A2.37,2.37,0,0,0,100.88,54.26Z"/></svg>